<svg width="448" height="144" viewBox="0 0 448 144" fill="none" xmlns="http://www.w3.org/2000/svg">
<path d="M0.919922 117H31.9599V74.44H71.7999V117H102.84V5.00001H71.7999V46.92H31.9599V5.00001H0.919922V117Z" fill="white"/>
<path d="M163.759 119.08C181.039 119.08 193.039 112.04 201.359 101.48L184.559 87.56C178.319 93.64 172.559 96.36 165.359 96.36C155.919 96.36 149.039 91.56 146.639 82.12H204.559C204.719 80.04 204.719 77.8 204.719 75.88C204.719 50.44 190.959 28.52 161.039 28.52C135.439 28.52 117.359 48.52 117.359 73.8V74.12C117.359 101 136.559 119.08 163.759 119.08ZM146.159 66.6C147.759 57.16 153.199 50.92 161.199 50.92C169.519 50.92 175.119 57 176.239 66.6H146.159Z" fill="white"/>
<path d="M218.394 117H248.794V0.200012H218.394V117Z" fill="white"/>
<path d="M266.362 117H296.762V0.200012H266.362V117Z" fill="white"/>
<path d="M357.851 119.08C385.691 119.08 405.851 98.44 405.851 73.8V73.48C405.851 48.84 385.851 28.52 358.171 28.52C330.331 28.52 310.171 49.16 310.171 73.8V74.12C310.171 98.76 330.171 119.08 357.851 119.08ZM358.171 93.32C347.451 93.32 339.771 84.36 339.771 73.8V73.48C339.771 63.08 346.811 54.28 357.851 54.28C368.571 54.28 376.251 63.24 376.251 73.8V74.12C376.251 84.52 369.211 93.32 358.171 93.32Z" fill="white"/>
<path d="M414.569 143.4C434.569 142.76 447.529 134.6 447.529 110.92V85.48H415.849V116.68H428.169C428.489 125.32 422.889 130.44 412.169 131.72L414.569 143.4Z" fill="white"/>
</svg>
