<svg width="739" height="131" viewBox="0 0 739 131" fill="none" xmlns="http://www.w3.org/2000/svg">
<path d="M29.6005 128V11.2H0.480469V128H29.6005Z" fill="white"/>
<path d="M53.3255 46.24C63.7255 46.24 69.9655 39.68 71.7255 30.72C71.7255 44.64 54.7655 56.48 35.0855 64.64L52.3655 81.6C66.9255 66.88 72.6855 47.52 72.6855 30.88C72.6855 18.56 65.8055 10.08 53.6455 10.08C42.7655 10.08 35.5655 17.44 35.5655 28.32C35.5655 37.76 41.8055 46.24 53.3255 46.24Z" fill="white"/>
<path d="M106.918 83.36C106.918 69.28 111.718 60.16 124.038 60.16C136.838 60.16 140.518 68.16 140.518 80.96V128H168.998V83.52C168.998 69.44 175.078 60.16 185.958 60.16C198.918 60.16 202.278 68.16 202.278 80.96V128H230.758V71.36C230.758 50.24 220.998 36.64 200.998 36.64C190.598 36.64 182.918 40.32 177.958 47.84C172.998 55.36 170.118 64.96 168.998 76.96V73.76C168.998 49.92 159.558 36.64 138.918 36.64C128.358 36.64 120.518 40.8 115.398 48.96C110.278 57.12 107.398 68 106.598 81.44L106.758 78.4V38.4H78.598V128H106.918V83.36Z" fill="white"/>
<path d="M312.809 128V63.68H331.209V38.4H312.809V34.08C312.809 28.8 314.889 26.56 320.169 26.56H331.209V3.83998H318.889C306.249 3.83998 297.449 5.91999 292.489 10.24C287.689 14.4 285.289 22.56 285.289 34.72V38.4H270.569V63.68H285.289V128H312.809Z" fill="white"/>
<path d="M357.062 130.08C377.862 130.08 391.942 111.68 396.262 90.72C396.102 96.32 395.622 103.2 395.622 108.8C395.622 124.16 403.462 129.12 419.302 129.12C423.782 129.12 429.062 128.32 432.422 127.52V104.32C431.622 104.8 429.702 105.12 428.262 105.12C424.582 105.12 422.982 103.84 422.982 98.72V72.96C422.982 48.16 408.262 36.64 381.862 36.64C359.622 36.64 343.782 46.72 332.422 62.08L357.222 77.76C362.342 66.24 369.702 60.16 381.382 60.16C392.262 60.16 396.582 65.6 396.582 72.16C396.582 77.12 391.302 79.36 384.102 81.44C378.982 82.72 372.902 84 367.782 85.12C359.622 87.04 353.062 88.8 346.822 91.84C338.342 95.84 333.382 101.92 333.382 110.88C333.382 121.92 341.222 130.08 357.062 130.08ZM381.542 83.36C389.382 81.44 394.502 79.68 396.582 76V84.96C394.662 101.44 386.182 108.32 375.302 108.32C366.342 108.32 361.702 104.16 361.702 98.24C361.702 89.44 369.542 86.4 381.542 83.36Z" fill="white"/>
<path d="M452.537 33.92C462.937 33.92 469.337 27.52 469.337 17.28C469.337 7.03998 462.937 0.47998 452.537 0.47998C442.297 0.47998 435.897 7.03998 435.897 17.28C435.897 27.52 442.297 33.92 452.537 33.92ZM437.977 38.4V128H466.937V38.4H437.977Z" fill="white"/>
<path d="M558.197 38.4H478.357V62.88H529.877L477.397 103.36V128H558.997V103.04H505.557L558.197 62.24V38.4Z" fill="white"/>
<path d="M631.939 38.4V83.84C631.939 97.92 627.139 107.04 614.979 107.04C602.019 107.04 598.019 99.04 598.019 86.24V38.4H569.379V95.04C569.379 116.16 579.779 129.76 600.259 129.76C620.739 129.76 630.339 113.6 632.099 88.16V128H660.419V38.4H631.939Z" fill="white"/>
<path d="M723.474 37.12C713.874 37.12 707.154 40.8 703.474 48C699.794 55.2 697.714 65.44 696.914 78.88V38.4H668.754V128H697.074V80.64C697.074 70.24 702.194 64.64 710.514 64.64C717.714 64.64 723.314 67.04 729.074 72.16L738.834 40.8C734.834 38.72 729.234 37.12 723.474 37.12Z" fill="white"/>
</svg>
