<svg width="40" height="40" viewBox="0 0 40 40" fill="none" xmlns="http://www.w3.org/2000/svg">
<g clip-path="url(#clip0_878:798)">
<path d="M22.5624 19.7125C22.5624 25.997 17.5116 31.0916 11.2814 31.0916C5.05121 31.0916 0 25.9959 0 19.7125C0 13.4291 5.05083 8.33301 11.2814 8.33301C17.512 8.33301 22.5624 13.428 22.5624 19.7125Z" fill="white"/>
<path d="M34.9377 19.7129C34.9377 25.6284 32.4122 30.4258 29.297 30.4258C26.1817 30.4258 23.6562 25.6284 23.6562 19.7129C23.6562 13.7974 26.1813 9 29.2966 9C32.4119 9 34.9373 13.7959 34.9373 19.7129" fill="white"/>
<path d="M40.0005 19.7133C40.0005 25.0122 39.1125 29.3104 38.0167 29.3104C36.9209 29.3104 36.0332 25.0133 36.0332 19.7133C36.0332 14.4133 36.9213 10.1162 38.0167 10.1162C39.1121 10.1162 40.0005 14.4129 40.0005 19.7133Z" fill="white"/>
</g>
<defs>
<clipPath id="clip0_878:798">
<rect width="40" height="40" fill="white"/>
</clipPath>
</defs>
</svg>
