<svg width="40" height="36" viewBox="0 0 40 36" fill="none" xmlns="http://www.w3.org/2000/svg">
<path fill-rule="evenodd" clip-rule="evenodd" d="M29.878 0C32.56 0 35.14 1.06 37.038 2.962C38.938 4.86 40 7.42 40 10.1V25.9C40 31.48 35.46 36 29.878 36H10.12C4.538 36 0 31.48 0 25.9V10.1C0 4.52 4.518 0 10.12 0H29.878ZM33.0599 13.0807L33.2199 12.9207C33.6979 12.3407 33.6979 11.5007 33.1979 10.9207C32.9199 10.6227 32.5379 10.4407 32.1399 10.4007C31.7199 10.3787 31.3199 10.5207 31.0179 10.8007L21.9999 18.0007C20.8399 18.9627 19.1779 18.9627 17.9999 18.0007L8.99986 10.8007C8.37786 10.3407 7.51786 10.4007 6.99986 10.9407C6.45986 11.4807 6.39986 12.3407 6.85786 12.9407L7.11986 13.2007L16.2199 20.3007C17.3399 21.1807 18.6979 21.6607 20.1199 21.6607C21.5379 21.6607 22.9199 21.1807 24.0379 20.3007L33.0599 13.0807Z" fill="white"/>
</svg>
