<svg width="40" height="40" viewBox="0 0 40 40" fill="none" xmlns="http://www.w3.org/2000/svg">
<path d="M20 0C8.95313 0 0 8.95313 0 20C0 28.4766 5.27344 35.7109 12.7109 38.625C12.5391 37.0391 12.375 34.6172 12.7813 32.8906C13.1484 31.3281 15.125 22.9531 15.125 22.9531C15.125 22.9531 14.5234 21.7578 14.5234 19.9844C14.5234 17.2031 16.1328 15.125 18.1406 15.125C19.8437 15.125 20.6719 16.4062 20.6719 17.9453C20.6719 19.6641 19.5781 22.2266 19.0156 24.6016C18.5469 26.5937 20.0156 28.2188 21.9766 28.2188C25.5312 28.2188 28.2656 24.4687 28.2656 19.0625C28.2656 14.2734 24.8281 10.9219 19.9141 10.9219C14.2266 10.9219 10.8828 15.1875 10.8828 19.6016C10.8828 21.3203 11.5469 23.1641 12.375 24.1641C12.5391 24.3594 12.5625 24.5391 12.5156 24.7344C12.3672 25.3672 12.0234 26.7266 11.9609 27C11.875 27.3672 11.6719 27.4453 11.2891 27.2656C8.78906 26.1016 7.22656 22.4531 7.22656 19.5156C7.22656 13.2031 11.8125 7.41406 20.4375 7.41406C27.375 7.41406 32.7656 12.3594 32.7656 18.9688C32.7656 25.8594 28.4219 31.4062 22.3906 31.4062C20.3672 31.4062 18.4609 30.3516 17.8047 29.1094C17.8047 29.1094 16.8047 32.9297 16.5625 33.8672C16.1094 35.6016 14.8906 37.7813 14.0781 39.1094C15.9531 39.6875 17.9375 40 20 40C31.0469 40 40 31.0469 40 20C40 8.95313 31.0469 0 20 0Z" fill="white"/>
</svg>
