<svg xmlns="http://www.w3.org/2000/svg" xmlns:xlink="http://www.w3.org/1999/xlink"><defs><clipPath id="clip0"><path d="M0 0h40v40H0z" transform="translate(.248)"/></clipPath>
<clipPath id="clip0_878:798">
<rect width="40" height="40"/>
</clipPath>

<clipPath id="clip0_878:806">
<rect width="41.5267" height="40"/>
</clipPath>

<clipPath id="clip0_878:749">
<rect width="40" height="40"/>
</clipPath>
</defs><symbol id="icon-arrow-right" viewBox="0 0 15 12"><path d="M6.82 0h2.637L15 6l-5.543 6H6.82l2.576-2.78a126.93 126.93 0 012.287-2.428H0V5.191h11.683c-.55-.562-1.312-1.365-2.287-2.41L6.82 0z"/></symbol><symbol id="icon-dribbble" viewBox="0 0 40 40">
<path fill-rule="evenodd" clip-rule="evenodd" d="M20 0C8.95879 0 0 8.95879 0 20C0 31.0413 8.95879 40 20 40C31.0195 40 40 31.0413 40 20C40 8.95879 31.0195 0 20 0ZM33.2104 9.21909C35.5965 12.1258 37.0283 15.8351 37.0716 19.8481C36.5076 19.7397 30.8676 18.59 25.1844 19.3059C25.0542 19.0239 24.9458 18.7201 24.8156 18.4165C24.4685 17.5923 24.0781 16.7462 23.6876 15.9436C29.9782 13.384 32.8416 9.69631 33.2104 9.21909ZM20 2.95011C24.3384 2.95011 28.308 4.57701 31.3232 7.24513C31.0195 7.67896 28.4381 11.128 22.3644 13.4056C19.5661 8.26464 16.4643 4.0564 15.987 3.40564C17.2668 3.10195 18.6118 2.95011 20 2.95011ZM12.7332 4.55531C13.1887 5.16269 16.2256 9.39263 19.0673 14.4251C11.0846 16.551 4.03471 16.5076 3.27549 16.5076C4.38177 11.2148 7.96095 6.81127 12.7332 4.55531ZM2.90673 20.0218C2.90673 19.8481 2.90673 19.6746 2.90673 19.5011C3.64425 19.5227 11.9306 19.6312 20.4555 17.0716C20.9545 18.026 21.41 19.0021 21.8439 19.9783C21.6269 20.0434 21.3882 20.1085 21.1714 20.1735C12.3644 23.0151 7.67896 30.7809 7.2885 31.4316C4.577 28.4165 2.90673 24.4035 2.90673 20.0218ZM20 37.0933C16.052 37.0933 12.4078 35.7484 9.52277 33.4924C9.82646 32.8634 13.2971 26.1823 22.9284 22.82C22.9717 22.7983 22.9935 22.7983 23.0369 22.7766C25.4446 29.0021 26.4209 34.2299 26.6811 35.7266C24.6204 36.616 22.3644 37.0933 20 37.0933ZM29.5228 34.1649C29.3493 33.1236 28.4381 28.1345 26.2039 21.9956C31.5619 21.1496 36.2473 22.538 36.833 22.7332C36.0955 27.4837 33.3623 31.5835 29.5228 34.1649Z"/>
</symbol><symbol id="icon-instagram" viewBox="0 0 41 40"><g clip-path="url(#clip0)"><path d="M20.248 3.602c5.344 0 5.977.023 8.078.117 1.953.086 3.008.414 3.711.687.93.36 1.602.797 2.297 1.492.703.704 1.133 1.368 1.492 2.297.274.703.602 1.766.688 3.711.093 2.11.117 2.742.117 8.078 0 5.344-.024 5.977-.117 8.078-.086 1.954-.414 3.008-.688 3.711a6.186 6.186 0 01-1.492 2.297c-.703.703-1.367 1.133-2.297 1.492-.703.274-1.765.602-3.71.688-2.11.094-2.743.117-8.079.117-5.344 0-5.977-.023-8.078-.117-1.953-.086-3.008-.414-3.711-.688a6.186 6.186 0 01-2.297-1.492c-.703-.703-1.133-1.367-1.492-2.297-.274-.703-.602-1.765-.688-3.71-.093-2.11-.117-2.743-.117-8.079 0-5.343.024-5.976.117-8.078.086-1.953.414-3.008.688-3.71.36-.93.797-1.602 1.492-2.298.703-.703 1.367-1.132 2.297-1.492.703-.273 1.766-.601 3.71-.687 2.102-.094 2.735-.117 8.079-.117zm0-3.602c-5.43 0-6.11.023-8.242.117-2.125.094-3.586.438-4.852.93-1.32.516-2.437 1.195-3.547 2.312C2.49 4.47 1.811 5.586 1.295 6.9.803 8.171.459 9.624.365 11.75.271 13.89.248 14.57.248 20s.023 6.11.117 8.242c.094 2.125.438 3.586.93 4.852.516 1.32 1.195 2.437 2.312 3.547a9.776 9.776 0 003.54 2.304c1.273.492 2.726.836 4.851.93 2.133.094 2.813.117 8.242.117 5.43 0 6.11-.023 8.242-.117 2.125-.094 3.586-.438 4.852-.93a9.775 9.775 0 003.539-2.304 9.775 9.775 0 002.305-3.54c.492-1.273.836-2.726.93-4.851.093-2.133.117-2.813.117-8.242 0-5.43-.024-6.11-.118-8.242-.093-2.125-.437-3.586-.93-4.852A9.367 9.367 0 0036.89 3.36a9.777 9.777 0 00-3.54-2.304c-1.273-.492-2.726-.836-4.851-.93C26.358.023 25.678 0 20.248 0z"/><path d="M20.248 9.727C14.576 9.727 9.975 14.328 9.975 20s4.601 10.273 10.273 10.273S30.521 25.672 30.521 20 25.92 9.727 20.248 9.727zm0 16.937a6.665 6.665 0 010-13.328 6.665 6.665 0 010 13.328zM33.326 9.32a2.4 2.4 0 11-2.398-2.398 2.404 2.404 0 012.398 2.398z"/></g></symbol><symbol id="icon-linkedin" viewBox="0 0 40 40">
<path d="M37.0391 0H2.95312C1.32031 0 0 1.28906 0 2.88281V37.1094C0 38.7031 1.32031 40 2.95312 40H37.0391C38.6719 40 40 38.7031 40 37.1172V2.88281C40 1.28906 38.6719 0 37.0391 0ZM11.8672 34.0859H5.92969V14.9922H11.8672V34.0859ZM8.89844 12.3906C6.99219 12.3906 5.45313 10.8516 5.45313 8.95312C5.45313 7.05469 6.99219 5.51562 8.89844 5.51562C10.7969 5.51562 12.3359 7.05469 12.3359 8.95312C12.3359 10.8437 10.7969 12.3906 8.89844 12.3906ZM34.0859 34.0859H28.1562V24.8047C28.1562 22.5937 28.1172 19.7422 25.0703 19.7422C21.9844 19.7422 21.5156 22.1562 21.5156 24.6484V34.0859H15.5938V14.9922H21.2812V17.6016H21.3594C22.1484 16.1016 24.0859 14.5156 26.9688 14.5156C32.9766 14.5156 34.0859 18.4688 34.0859 23.6094V34.0859V34.0859Z"/>
</symbol><symbol id="icon-medium" viewBox="0 0 40 40">
<g clip-path="url(#clip0_878:798)">
<path d="M22.5624 19.7125C22.5624 25.997 17.5116 31.0916 11.2814 31.0916C5.05121 31.0916 0 25.9959 0 19.7125C0 13.4291 5.05083 8.33301 11.2814 8.33301C17.512 8.33301 22.5624 13.428 22.5624 19.7125Z"/>
<path d="M34.9377 19.7129C34.9377 25.6284 32.4122 30.4258 29.297 30.4258C26.1817 30.4258 23.6562 25.6284 23.6562 19.7129C23.6562 13.7974 26.1813 9 29.2966 9C32.4119 9 34.9373 13.7959 34.9373 19.7129"/>
<path d="M40.0005 19.7133C40.0005 25.0122 39.1125 29.3104 38.0167 29.3104C36.9209 29.3104 36.0332 25.0133 36.0332 19.7133C36.0332 14.4133 36.9213 10.1162 38.0167 10.1162C39.1121 10.1162 40.0005 14.4129 40.0005 19.7133Z"/>
</g>

</symbol><symbol id="icon-message" viewBox="0 0 40 36">
<path fill-rule="evenodd" clip-rule="evenodd" d="M29.878 0C32.56 0 35.14 1.06 37.038 2.962C38.938 4.86 40 7.42 40 10.1V25.9C40 31.48 35.46 36 29.878 36H10.12C4.538 36 0 31.48 0 25.9V10.1C0 4.52 4.518 0 10.12 0H29.878ZM33.0599 13.0807L33.2199 12.9207C33.6979 12.3407 33.6979 11.5007 33.1979 10.9207C32.9199 10.6227 32.5379 10.4407 32.1399 10.4007C31.7199 10.3787 31.3199 10.5207 31.0179 10.8007L21.9999 18.0007C20.8399 18.9627 19.1779 18.9627 17.9999 18.0007L8.99986 10.8007C8.37786 10.3407 7.51786 10.4007 6.99986 10.9407C6.45986 11.4807 6.39986 12.3407 6.85786 12.9407L7.11986 13.2007L16.2199 20.3007C17.3399 21.1807 18.6979 21.6607 20.1199 21.6607C21.5379 21.6607 22.9199 21.1807 24.0379 20.3007L33.0599 13.0807Z"/>
</symbol><symbol id="icon-patreon" viewBox="0 0 42 40">
<g clip-path="url(#clip0_878:806)">
<path d="M26.5476 29.9865C34.8205 29.9865 41.5269 23.2743 41.5269 14.9942C41.5269 6.71423 34.8205 0.00195312 26.5476 0.00195312C18.2748 0.00195312 11.5684 6.71423 11.5684 14.9942C11.5684 23.2743 18.2748 29.9865 26.5476 29.9865Z"/>
<path d="M0 0.00195312H7.32161V39.998H0V0.00195312Z"/>
</g>

</symbol><symbol id="icon-pinterest" viewBox="0 0 40 40">
<path d="M20 0C8.95313 0 0 8.95313 0 20C0 28.4766 5.27344 35.7109 12.7109 38.625C12.5391 37.0391 12.375 34.6172 12.7813 32.8906C13.1484 31.3281 15.125 22.9531 15.125 22.9531C15.125 22.9531 14.5234 21.7578 14.5234 19.9844C14.5234 17.2031 16.1328 15.125 18.1406 15.125C19.8437 15.125 20.6719 16.4062 20.6719 17.9453C20.6719 19.6641 19.5781 22.2266 19.0156 24.6016C18.5469 26.5937 20.0156 28.2188 21.9766 28.2188C25.5312 28.2188 28.2656 24.4687 28.2656 19.0625C28.2656 14.2734 24.8281 10.9219 19.9141 10.9219C14.2266 10.9219 10.8828 15.1875 10.8828 19.6016C10.8828 21.3203 11.5469 23.1641 12.375 24.1641C12.5391 24.3594 12.5625 24.5391 12.5156 24.7344C12.3672 25.3672 12.0234 26.7266 11.9609 27C11.875 27.3672 11.6719 27.4453 11.2891 27.2656C8.78906 26.1016 7.22656 22.4531 7.22656 19.5156C7.22656 13.2031 11.8125 7.41406 20.4375 7.41406C27.375 7.41406 32.7656 12.3594 32.7656 18.9688C32.7656 25.8594 28.4219 31.4062 22.3906 31.4062C20.3672 31.4062 18.4609 30.3516 17.8047 29.1094C17.8047 29.1094 16.8047 32.9297 16.5625 33.8672C16.1094 35.6016 14.8906 37.7813 14.0781 39.1094C15.9531 39.6875 17.9375 40 20 40C31.0469 40 40 31.0469 40 20C40 8.95313 31.0469 0 20 0Z"/>
</symbol><symbol id="icon-twitter" viewBox="0 0 40 40">
<g clip-path="url(#clip0_878:749)">
<path d="M12.5836 36.2502C27.6742 36.2502 35.9305 23.7448 35.9305 12.9033C35.9305 12.5518 35.9227 12.1924 35.907 11.8408C37.5131 10.6793 38.8992 9.24067 40 7.59241C38.5042 8.25791 36.9161 8.69255 35.2898 8.88147C37.0021 7.85509 38.2842 6.2427 38.8984 4.34319C37.2876 5.29784 35.526 5.97126 33.6891 6.33459C32.4514 5.01951 30.815 4.14877 29.0328 3.857C27.2506 3.56522 25.422 3.86866 23.8296 4.7204C22.2372 5.57215 20.9697 6.92475 20.2231 8.5691C19.4765 10.2134 19.2924 12.0579 19.6992 13.8174C16.4375 13.6537 13.2466 12.8064 10.3333 11.3304C7.42004 9.8544 4.84949 7.78264 2.78828 5.24944C1.74067 7.05565 1.42009 9.19299 1.89172 11.2271C2.36334 13.2611 3.59177 15.0393 5.32734 16.2002C4.02438 16.1589 2.74996 15.808 1.60938 15.1768V15.2783C1.60821 17.1738 2.2635 19.0112 3.46385 20.4782C4.6642 21.9452 6.33554 22.9512 8.19375 23.3252C6.98676 23.6555 5.71997 23.7036 4.49141 23.4658C5.01576 25.096 6.03596 26.5217 7.40962 27.5441C8.78328 28.5665 10.4419 29.1346 12.1539 29.169C9.24737 31.4521 5.65696 32.6905 1.96094 32.6846C1.30548 32.6836 0.650665 32.6434 0 32.5643C3.75476 34.9732 8.12255 36.2526 12.5836 36.2502Z"/>
</g>

</symbol><symbol id="icon-youtube" viewBox="0 0 40 40">
<path d="M39.6016 12C39.6016 12 39.2109 9.24219 38.0078 8.03125C36.4844 6.4375 34.7813 6.42969 34 6.33594C28.4063 5.92969 20.0078 5.92969 20.0078 5.92969H19.9922C19.9922 5.92969 11.5937 5.92969 6 6.33594C5.21875 6.42969 3.51562 6.4375 1.99219 8.03125C0.789063 9.24219 0.40625 12 0.40625 12C0.40625 12 0 15.2422 0 18.4766V21.5078C0 24.7422 0.398437 27.9844 0.398437 27.9844C0.398437 27.9844 0.789062 30.7422 1.98437 31.9531C3.50781 33.5469 5.50781 33.4922 6.39844 33.6641C9.60156 33.9687 20 34.0625 20 34.0625C20 34.0625 28.4063 34.0469 34 33.6484C34.7813 33.5547 36.4844 33.5469 38.0078 31.9531C39.2109 30.7422 39.6016 27.9844 39.6016 27.9844C39.6016 27.9844 40 24.75 40 21.5078V18.4766C40 15.2422 39.6016 12 39.6016 12ZM15.8672 25.1875V13.9453L26.6719 19.5859L15.8672 25.1875Z"/>
</symbol></svg>