<svg viewBox="0 0 41 40"><g clip-path="url(#clip0)"><path fill="#000100" d="M20.248 3.602c5.344 0 5.977.023 8.078.117 1.953.086 3.008.414 3.711.687.93.36 1.602.797 2.297 1.492.703.704 1.133 1.368 1.492 2.297.274.703.602 1.766.688 3.711.093 2.11.117 2.742.117 8.078 0 5.344-.024 5.977-.117 8.078-.086 1.954-.414 3.008-.688 3.711a6.186 6.186 0 01-1.492 2.297c-.703.703-1.367 1.133-2.297 1.492-.703.274-1.765.602-3.71.688-2.11.094-2.743.117-8.079.117-5.344 0-5.977-.023-8.078-.117-1.953-.086-3.008-.414-3.711-.688a6.186 6.186 0 01-2.297-1.492c-.703-.703-1.133-1.367-1.492-2.297-.274-.703-.602-1.765-.688-3.71-.093-2.11-.117-2.743-.117-8.079 0-5.343.024-5.976.117-8.078.086-1.953.414-3.008.688-3.71.36-.93.797-1.602 1.492-2.298.703-.703 1.367-1.132 2.297-1.492.703-.273 1.766-.601 3.71-.687 2.102-.094 2.735-.117 8.079-.117zm0-3.602c-5.43 0-6.11.023-8.242.117-2.125.094-3.586.438-4.852.93-1.32.516-2.437 1.195-3.547 2.312C2.49 4.47 1.811 5.586 1.295 6.9.803 8.171.459 9.624.365 11.75.271 13.89.248 14.57.248 20s.023 6.11.117 8.242c.094 2.125.438 3.586.93 4.852.516 1.32 1.195 2.437 2.312 3.547a9.776 9.776 0 003.54 2.304c1.273.492 2.726.836 4.851.93 2.133.094 2.813.117 8.242.117 5.43 0 6.11-.023 8.242-.117 2.125-.094 3.586-.438 4.852-.93a9.775 9.775 0 003.539-2.304 9.775 9.775 0 002.305-3.54c.492-1.273.836-2.726.93-4.851.093-2.133.117-2.813.117-8.242 0-5.43-.024-6.11-.118-8.242-.093-2.125-.437-3.586-.93-4.852A9.367 9.367 0 0036.89 3.36a9.777 9.777 0 00-3.54-2.304c-1.273-.492-2.726-.836-4.851-.93C26.358.023 25.678 0 20.248 0z"/><path fill="#000100" d="M20.248 9.727C14.576 9.727 9.975 14.328 9.975 20s4.601 10.273 10.273 10.273S30.521 25.672 30.521 20 25.92 9.727 20.248 9.727zm0 16.937a6.665 6.665 0 010-13.328 6.665 6.665 0 010 13.328zM33.326 9.32a2.4 2.4 0 11-2.398-2.398 2.404 2.404 0 012.398 2.398z"/></g><defs><clipPath id="clip0"><path fill="#fff" d="M0 0h40v40H0z" transform="translate(.248)"/></clipPath></defs></svg>
