<svg width="40" height="40" viewBox="0 0 40 40" fill="none" xmlns="http://www.w3.org/2000/svg">
<g clip-path="url(#clip0_878:749)">
<path d="M12.5836 36.2502C27.6742 36.2502 35.9305 23.7448 35.9305 12.9033C35.9305 12.5518 35.9227 12.1924 35.907 11.8408C37.5131 10.6793 38.8992 9.24067 40 7.59241C38.5042 8.25791 36.9161 8.69255 35.2898 8.88147C37.0021 7.85509 38.2842 6.2427 38.8984 4.34319C37.2876 5.29784 35.526 5.97126 33.6891 6.33459C32.4514 5.01951 30.815 4.14877 29.0328 3.857C27.2506 3.56522 25.422 3.86866 23.8296 4.7204C22.2372 5.57215 20.9697 6.92475 20.2231 8.5691C19.4765 10.2134 19.2924 12.0579 19.6992 13.8174C16.4375 13.6537 13.2466 12.8064 10.3333 11.3304C7.42004 9.8544 4.84949 7.78264 2.78828 5.24944C1.74067 7.05565 1.42009 9.19299 1.89172 11.2271C2.36334 13.2611 3.59177 15.0393 5.32734 16.2002C4.02438 16.1589 2.74996 15.808 1.60938 15.1768V15.2783C1.60821 17.1738 2.2635 19.0112 3.46385 20.4782C4.6642 21.9452 6.33554 22.9512 8.19375 23.3252C6.98676 23.6555 5.71997 23.7036 4.49141 23.4658C5.01576 25.096 6.03596 26.5217 7.40962 27.5441C8.78328 28.5665 10.4419 29.1346 12.1539 29.169C9.24737 31.4521 5.65696 32.6905 1.96094 32.6846C1.30548 32.6836 0.650665 32.6434 0 32.5643C3.75476 34.9732 8.12255 36.2526 12.5836 36.2502Z" fill="white"/>
</g>
<defs>
<clipPath id="clip0_878:749">
<rect width="40" height="40" fill="white"/>
</clipPath>
</defs>
</svg>
