<svg width="101" height="20" viewBox="0 0 101 20" fill="none" xmlns="http://www.w3.org/2000/svg">
<g clip-path="url(#clip0_812:1310)">
<path d="M9.56346 -0.000398792C9.75129 0.11939 9.89488 0.297215 9.97242 0.506059C12.7782 6.63419 15.5861 12.7602 18.3961 18.8841C18.4263 18.9464 18.4521 19.0107 18.4733 19.0766C18.502 19.1448 18.5129 19.2192 18.5049 19.2927C18.497 19.3663 18.4704 19.4366 18.4277 19.497C18.385 19.5575 18.3276 19.606 18.2609 19.6381C18.1942 19.6702 18.1205 19.6848 18.0466 19.6805C17.1797 19.6856 16.3133 19.6856 15.4472 19.6805C15.1231 19.6805 14.9408 19.4691 14.8142 19.207C14.5457 18.6347 14.2849 18.0586 14.0253 17.4825C12.4731 14.047 10.9208 10.6116 9.36848 7.1761C9.33303 7.09507 9.28491 7.02163 9.21654 6.90008C9.14057 7.03809 9.08993 7.12673 9.04308 7.22042C7.29158 11.1336 5.54135 15.0469 3.79238 18.9601C3.73786 19.0962 3.67134 19.2271 3.5936 19.3513C3.52443 19.459 3.42805 19.5465 3.31422 19.605C3.20039 19.6634 3.07314 19.6908 2.94533 19.6843C2.14006 19.6843 1.3348 19.6666 0.530801 19.6843C0.150958 19.6957 -0.142794 19.3982 0.0648534 18.9487C0.461156 18.0877 0.862524 17.2293 1.26009 16.3683C3.70797 11.086 6.15248 5.80276 8.5936 0.518721C8.69742 0.294613 8.81264 0.0970956 9.04814 -0.00292969L9.56346 -0.000398792Z" fill="white"/>
<path d="M91.4919 0C91.7325 0.100025 91.8363 0.307672 91.9376 0.529247C93.7372 4.46189 95.5393 8.39411 97.344 12.3259C98.3569 14.5265 99.3669 16.7266 100.374 18.9263C100.559 19.3264 100.366 19.705 99.8953 19.686C99.1153 19.6581 98.3329 19.6645 97.5517 19.686C97.3816 19.7003 97.2116 19.6585 97.0676 19.567C96.9235 19.4756 96.8134 19.3395 96.754 19.1795C96.4906 18.6123 96.2307 18.0442 95.974 17.4753L91.3134 7.14485C91.283 7.07774 91.2412 7.01823 91.169 6.88529C91.088 7.04862 91.0285 7.15877 90.9778 7.27146C89.4315 10.7323 87.8855 14.196 86.34 17.6627C86.1209 18.1552 85.893 18.6452 85.6727 19.1378C85.6113 19.3098 85.4949 19.4568 85.3416 19.5561C85.1882 19.6554 85.0065 19.7015 84.8244 19.6873C84.0647 19.6721 83.305 19.6581 82.5453 19.6873C82.0794 19.7088 81.8034 19.3809 82.0389 18.8807C83.0518 16.7283 84.0419 14.5758 85.0396 12.4234C86.8696 8.4705 88.6984 4.51676 90.5258 0.562168C90.6309 0.334262 90.7461 0.124083 90.9753 0.00126738L91.4919 0Z" fill="white"/>
<path d="M52.8477 16.3713H59.8381C60.3129 16.3713 60.4711 16.5346 60.4711 17.0044C60.4711 17.7147 60.4711 18.425 60.4711 19.1353C60.4711 19.5 60.2977 19.6734 59.933 19.6734H48.1453C47.792 19.6734 47.6109 19.481 47.592 19.1353C47.5764 18.844 47.6473 18.5546 47.7958 18.3034C50.2437 13.9141 52.6818 9.52485 55.1103 5.13555C55.3395 4.72406 55.5699 4.31383 55.7965 3.90106C55.9232 3.66176 55.8991 3.61112 55.6193 3.61112H49.1227C48.5403 3.61112 48.3871 3.45538 48.3871 2.86536C48.3871 2.22469 48.3871 1.58402 48.3871 0.943355C48.3871 0.501471 48.5998 0.293823 49.0429 0.293823C52.8097 0.293823 56.5765 0.30395 60.3433 0.283691C61.0308 0.283691 61.1954 0.848394 60.9409 1.33459C60.2812 2.60074 59.5899 3.84915 58.915 5.1039C56.9306 8.77487 54.947 12.4467 52.9642 16.1193C52.9249 16.1852 52.8983 16.2548 52.8477 16.3713Z" fill="white"/>
<path d="M19.0066 0.296551C19.4396 0.296551 19.8726 0.302882 20.3057 0.296551C20.437 0.284962 20.5685 0.317522 20.6792 0.389074C20.79 0.460626 20.8738 0.567081 20.9172 0.691587C22.6316 4.5356 24.3501 8.37624 26.0729 12.2135C26.1428 12.3329 26.2247 12.4449 26.3173 12.5477C26.4145 12.4522 26.4995 12.345 26.5705 12.2287C28.2908 8.39734 30.0068 4.56303 31.7187 0.725775C31.7662 0.587099 31.8593 0.468584 31.9827 0.389506C32.1062 0.310428 32.2527 0.275438 32.3986 0.290222C33.257 0.302883 34.1167 0.290222 34.9752 0.290222C35.5032 0.290222 35.7096 0.602957 35.4905 1.07523C33.582 5.2113 31.6727 9.34736 29.7625 13.4834C28.8281 15.5093 27.8953 17.5326 26.9643 19.5533C26.8478 19.8066 26.6984 19.9585 26.3882 19.9585C26.078 19.9585 25.821 19.9066 25.6652 19.5647C23.7829 15.4498 21.8934 11.3382 19.9967 7.22995L17.2011 1.15247C17.162 1.07728 17.1294 0.998917 17.1036 0.918228C17.0086 0.553579 17.2074 0.285156 17.5923 0.285156C18.0633 0.290221 18.5343 0.296551 19.0066 0.296551Z" fill="white"/>
<path d="M66.6743 0.296279C67.1149 0.296279 67.5606 0.296279 67.9974 0.296279C68.1246 0.285054 68.252 0.316224 68.3596 0.38493C68.4673 0.453635 68.5491 0.556017 68.5925 0.676122C70.3246 4.55474 72.0588 8.4321 73.7951 12.3082C73.8293 12.3842 73.8584 12.4854 73.9217 12.5222C74.066 12.6083 74.1395 12.5044 74.1952 12.3766C74.6848 11.2792 75.176 10.1819 75.669 9.08458C76.9191 6.29147 78.1675 3.49751 79.4142 0.70271C79.4592 0.573868 79.5459 0.463753 79.6606 0.389876C79.7753 0.315998 79.9114 0.282608 80.0473 0.295015C80.9058 0.303878 81.7655 0.295015 82.6239 0.295015C83.2177 0.295015 83.4076 0.587494 83.1582 1.1294C82.0043 3.62877 80.8505 6.12771 79.6966 8.62624C78.0202 12.2558 76.3443 15.8888 74.6687 19.5252C74.4788 19.9354 74.0964 20.1089 73.6837 19.9278C73.5386 19.8446 73.4255 19.7154 73.3621 19.5606C72.6024 17.9147 71.8427 16.2687 71.083 14.6227C69.0082 10.1127 66.9335 5.60269 64.8587 1.09268C64.6333 0.602687 64.8333 0.293747 65.379 0.29248L66.6743 0.296279Z" fill="white"/>
<path d="M43.6656 10.0077V19.0657C43.6656 19.5126 43.4972 19.681 43.0528 19.681H40.6623C40.2483 19.681 40.0723 19.5063 40.0723 19.0898C40.0723 15.3521 40.0723 11.6149 40.0723 7.87806V0.950985C40.0723 0.478713 40.2559 0.296387 40.7294 0.296387H43.0274C43.4693 0.296387 43.6605 0.490107 43.6605 0.929458L43.6656 10.0077Z" fill="white"/>
</g>
<defs>
<clipPath id="clip0_812:1310">
<rect width="100.444" height="20" fill="white"/>
</clipPath>
</defs>
</svg>
