<svg width="79" height="24" viewBox="0 0 79 24" fill="none" xmlns="http://www.w3.org/2000/svg">
<path fill-rule="evenodd" clip-rule="evenodd" d="M11.8559 9.46974H11.8556C11.0275 8.72346 10.0113 8.3153 8.35236 8.06421C8.34948 8.06421 8.34857 8.06421 6.27999 7.75752C5.48449 7.63707 4.78408 7.34922 4.35679 6.97038C3.95046 6.60612 3.74479 6.09756 3.74479 5.45594C3.74479 3.87344 4.95725 2.85101 6.83413 2.85101C8.48999 2.85085 9.66083 3.26433 10.6321 4.19061C10.72 4.27537 10.8619 4.27324 10.9479 4.18848L12.7088 2.45318C12.7526 2.41034 12.7769 2.34958 12.7755 2.28898C12.7751 2.22822 12.7491 2.16852 12.7044 2.1266C11.1083 0.635244 9.37586 0 6.91084 0C3.08449 0 0.612016 2.18113 0.612016 5.55755C0.612016 7.11696 1.06939 8.30588 2.0098 9.19237C2.84874 9.97632 4.08293 10.5007 5.57884 10.7057L7.72063 11.0124C8.74382 11.159 9.16216 11.317 9.58657 11.7178C10.0081 12.0947 10.2305 12.6912 10.2305 13.4416C10.2305 15.065 8.94601 15.9966 6.70685 15.9966C4.70724 15.9964 3.40835 15.5129 2.22414 14.327C2.13588 14.2392 1.99203 14.2392 1.90439 14.3261L0.0673091 16.1387C0.0244733 16.1807 1.78226e-05 16.2372 1.78226e-05 16.2979C-0.000741677 16.3585 0.022804 16.415 0.0647282 16.458C1.76889 18.187 3.7401 18.9249 6.65597 18.9249C10.7611 18.9249 13.4135 16.7416 13.4135 13.3652C13.4135 11.7052 12.875 10.3573 11.8559 9.46971V9.46974Z" fill="white"/>
<path fill-rule="evenodd" clip-rule="evenodd" d="M21.9125 13.8751C21.9125 14.7344 21.7556 15.2911 21.4185 15.6293C20.8231 16.2018 20.2138 16.3033 19.1552 16.3033C17.7106 16.3033 17.0085 15.7757 17.0085 14.6925C17.0087 13.3403 18.1476 13.0567 19.1034 13.0567H21.8853H21.9125V13.8751L21.9125 13.8751ZM24.9676 9.89476C24.9676 6.84294 23.0459 5.229 19.4096 5.229C17.1127 5.229 15.8079 5.75549 14.5942 7.17058C14.5158 7.2637 14.5234 7.40071 14.6108 7.48335L16.3204 9.09105C16.3667 9.13389 16.4301 9.15698 16.4934 9.15166C16.5569 9.1465 16.6162 9.11505 16.6543 9.06493C17.3397 8.18467 17.9843 7.90304 19.3075 7.90304C21.158 7.90304 21.9124 8.5395 21.9124 10.0989V10.7907H18.7213C15.8269 10.7907 14.0293 12.3053 14.0293 14.7428C14.0293 15.9129 14.4148 16.9564 15.1142 17.6807C15.9619 18.5295 17.1164 18.925 18.7464 18.925C20.1369 18.925 21.0563 18.6342 21.9188 17.9224L21.9638 17.8847V18.5441C21.9638 18.6697 22.0659 18.7701 22.1909 18.7701H24.742C24.8661 18.7701 24.9676 18.6697 24.9676 18.5441V9.89477L24.9676 9.89476Z" fill="white"/>
<path fill-rule="evenodd" clip-rule="evenodd" d="M31.9341 16.1494C29.8774 16.1494 29.4557 14.5166 29.4557 12.0645C29.4557 9.62801 29.8774 8.00466 31.9341 8.00466C33.9758 8.00466 34.3862 9.55783 34.3862 12.0645C34.3862 14.5166 33.9699 16.1494 31.9341 16.1494ZM35.9219 6.4442C35.1498 5.67179 33.9371 5.229 32.5974 5.229C31.2267 5.229 30.2857 5.56911 29.4513 6.36567L29.4053 6.41063V5.6089C29.4053 5.48434 29.304 5.38181 29.178 5.38181H26.6266C26.502 5.38181 26.4004 5.48434 26.4004 5.6089L26.4005 23.7751C26.4005 23.8996 26.502 24.0002 26.6266 24.0002H29.2289C29.3538 24.0002 29.4557 23.8996 29.4557 23.7751V17.7832L29.5023 17.8271C30.3232 18.586 31.285 18.925 32.6227 18.925C33.9468 18.925 35.1498 18.4822 35.9219 17.71C37.2611 16.3692 37.4423 14.1033 37.4423 12.0645C37.4423 9.9356 37.2568 7.78166 35.9219 6.44419V6.4442Z" fill="white"/>
<path fill-rule="evenodd" clip-rule="evenodd" d="M41.6273 5.60893C41.6273 5.48437 41.526 5.38184 41.4012 5.38184H38.7947C38.6688 5.38184 38.5664 5.48437 38.5664 5.60893V18.5441C38.5664 18.6697 38.6688 18.7701 38.7947 18.7701H41.4012C41.526 18.7701 41.6272 18.6697 41.6272 18.5441L41.6273 5.60893V5.60893Z" fill="white"/>
<path fill-rule="evenodd" clip-rule="evenodd" d="M41.7025 0.831983C41.7025 0.707426 41.6012 0.605957 41.4748 0.605957H38.7151C38.5913 0.605957 38.4883 0.707426 38.4883 0.831983V3.05823C38.4883 3.18279 38.5913 3.28426 38.7151 3.28426H41.4748C41.6012 3.28426 41.7025 3.18279 41.7025 3.05823V0.831983Z" fill="white"/>
<path fill-rule="evenodd" clip-rule="evenodd" d="M45.6931 10.7907V10.7626C45.7247 10.1355 45.7959 9.80378 45.9947 9.34534C46.3886 8.40964 47.2733 7.8508 48.3616 7.8508C49.4356 7.8508 50.3111 8.40979 50.705 9.34534C50.914 9.82686 50.9954 10.1847 51.0298 10.7615L51.0314 10.7907H45.6931L45.6931 10.7907ZM54.074 11.6814C54.074 7.76178 51.8326 5.229 48.3617 5.229C44.839 5.229 42.6504 7.84867 42.6504 12.0645C42.6504 16.4875 44.797 18.925 48.6939 18.925C51.1301 18.925 52.416 18.1276 53.7022 16.8423C53.7456 16.7983 53.7696 16.7386 53.7696 16.679C53.7675 16.6172 53.7418 16.5586 53.6973 16.5168L52.0382 14.9605C51.9483 14.8757 51.8116 14.8778 51.7237 14.9656C50.8878 15.8009 50.1971 16.2258 48.7454 16.2258C46.8977 16.2258 45.7868 15.0809 45.6967 13.0849L45.6958 13.0567H53.848C53.9733 13.0567 54.074 12.954 54.074 12.8296V11.6814L54.074 11.6814Z" fill="white"/>
<path fill-rule="evenodd" clip-rule="evenodd" d="M66.1404 10.2768C66.1404 8.56564 65.717 7.38932 64.769 6.46714C63.9321 5.65706 62.7746 5.229 61.4231 5.229C60.2196 5.229 59.1226 5.61513 58.2497 6.34471L58.2058 6.38344V5.6089C58.2058 5.48434 58.1034 5.38181 57.9785 5.38181H55.4273C55.3014 5.38181 55.2012 5.48434 55.2012 5.6089V18.5441C55.2012 18.6697 55.3013 18.7701 55.4272 18.7701H58.0295C58.1538 18.7701 58.2562 18.6697 58.2562 18.5441V10.6598C58.2562 8.9979 59.173 8.00462 60.7088 8.00462C62.2183 8.00462 63.0843 8.97268 63.0843 10.6598V18.5441C63.0843 18.6697 63.1856 18.7701 63.3116 18.7701H65.9127C66.0375 18.7701 66.1404 18.6697 66.1404 18.5441V10.2768V10.2768Z" fill="white"/>
<path fill-rule="evenodd" clip-rule="evenodd" d="M73.5139 16.3244C73.5139 16.2009 73.4121 16.0984 73.2877 16.0984H72.2155C71.4063 16.0984 71.0135 15.6797 71.0135 14.8194L71.0136 8.05493H73.2877C73.4121 8.05493 73.5139 7.95346 73.5139 7.82891V5.83826C73.5139 5.7137 73.4121 5.61223 73.2877 5.61223H71.0136V1.91028C71.0136 1.78481 70.9117 1.68319 70.7943 1.68213C70.7944 1.68213 68.1916 2.38861 68.1842 2.38968C68.0587 2.38968 67.9563 2.49115 67.9563 2.61571L67.9565 5.61223H66.7052C66.5798 5.61223 66.4785 5.7137 66.4785 5.83826V7.82891C66.4785 7.95347 66.5797 8.05494 66.7052 8.05494H67.9565V14.9471C67.9565 16.8498 69.124 18.7702 71.7311 18.7702H73.2877C73.4121 18.7702 73.5139 18.6698 73.5139 18.5442V16.3243V16.3244Z" fill="white"/>
<path fill-rule="evenodd" clip-rule="evenodd" d="M76.867 2.85635H76.5274V3.42369H76.867C77.0504 3.42369 77.1687 3.29276 77.1687 3.13994C77.1689 2.98607 77.0504 2.85635 76.867 2.85635V2.85635ZM77.1581 4.63767L76.76 3.79205H76.5274V4.63767H76.0386V2.45335H76.9315C77.3741 2.45335 77.6575 2.77675 77.6575 3.13994C77.6575 3.4404 77.464 3.63301 77.2535 3.71868L77.7143 4.63767H77.1581V4.63767ZM76.7888 1.95315C75.9035 1.95315 75.222 2.63442 75.222 3.5481C75.222 4.46193 75.9035 5.14214 76.7888 5.14214C77.6741 5.14214 78.3557 4.46193 78.3557 3.5481C78.3558 2.63442 77.6741 1.95315 76.7888 1.95315ZM76.7888 5.6027C75.655 5.6027 74.7344 4.68264 74.7344 3.5481C74.7344 2.41356 75.6549 1.49365 76.7888 1.49365C77.9234 1.49365 78.8439 2.41356 78.8439 3.5481C78.8439 4.68264 77.9232 5.6027 76.7888 5.6027Z" fill="white"/>
</svg>
