<svg width="83" height="40" viewBox="0 0 83 40" fill="none" xmlns="http://www.w3.org/2000/svg">
<g clip-path="url(#clip0_7_24)">
<path d="M1.75444 1.61036C1.65482 1.6105 1.5593 1.65671 1.48885 1.73891C1.41841 1.82112 1.37878 1.9326 1.37866 2.04886V24.3316C1.37878 24.4478 1.41841 24.5592 1.48885 24.6414C1.5593 24.7237 1.65482 24.7699 1.75444 24.7701H10.3383C10.8034 24.7707 11.2493 24.9865 11.5782 25.3703C11.9071 25.7541 12.0921 26.2744 12.0926 26.8171V32.8704C12.0926 32.9558 12.114 33.0394 12.1542 33.1109C12.1944 33.1823 12.2516 33.2385 12.3188 33.2725C12.386 33.3065 12.4602 33.3169 12.5324 33.3023C12.6046 33.2877 12.6716 33.2489 12.7251 33.1905L19.936 25.3218C20.2607 24.9667 20.6893 24.7694 21.1343 24.7701H75.9794C76.079 24.7699 76.1745 24.7237 76.245 24.6414C76.3154 24.5592 76.355 24.4478 76.3552 24.3316V2.04817C76.355 1.93192 76.3154 1.82049 76.245 1.73829C76.1745 1.65609 76.079 1.60988 75.9794 1.60974L1.75444 1.61036Z" fill="white"/>
<path d="M11.2607 6.52623V12.6383C11.2607 13.2276 11.06 13.7929 10.7029 14.2096C10.3458 14.6263 9.86137 14.8604 9.3563 14.8604H6.97553V21.6944C6.97553 21.7975 6.94044 21.8964 6.87797 21.9693C6.8155 22.0422 6.73077 22.0831 6.64242 22.0831H3.97545C3.8871 22.0831 3.80237 22.0422 3.7399 21.9693C3.67742 21.8964 3.64233 21.7975 3.64233 21.6944V4.69269C3.64233 4.64164 3.65093 4.59105 3.66767 4.54389C3.68441 4.49673 3.70896 4.45393 3.7399 4.41783C3.77083 4.38174 3.80754 4.35306 3.84795 4.33352C3.88837 4.31399 3.9317 4.30392 3.97545 4.30392H9.35619C9.60634 4.30387 9.85403 4.36138 10.0851 4.47304C10.3163 4.58471 10.5263 4.7484 10.7031 4.95478C10.88 5.16115 11.0204 5.40613 11.1161 5.67579C11.2118 5.94546 11.2611 6.23447 11.2611 6.52636L11.2607 6.52623ZM6.97521 12.0825H7.45128C7.5776 12.0825 7.69873 12.024 7.78805 11.9197C7.87737 11.8155 7.92756 11.6741 7.92756 11.5267V7.63751C7.92756 7.56453 7.91524 7.49226 7.8913 7.42484C7.86737 7.35742 7.83228 7.29617 7.78805 7.24457C7.74382 7.19297 7.69132 7.15204 7.63354 7.12412C7.57575 7.0962 7.51382 7.08185 7.45128 7.08187H6.97553L6.97521 12.0825Z" fill="black"/>
<path d="M17.7358 4.30298C17.9859 4.30296 18.2336 4.36042 18.4647 4.47209C18.6958 4.58377 18.9057 4.74746 19.0826 4.95383C19.2595 5.1602 19.3998 5.40526 19.4955 5.67491C19.5913 5.94456 19.6406 6.23354 19.6406 6.52541V19.8599C19.6405 20.4494 19.4398 21.0147 19.0826 21.4315C18.7254 21.8482 18.2409 22.0824 17.7358 22.0824H13.9268C13.4217 22.0824 12.9372 21.8482 12.5801 21.4315C12.2229 21.0147 12.0222 20.4494 12.0222 19.8599V6.52541C12.0222 5.93601 12.2229 5.37074 12.58 4.95396C12.9372 4.53717 13.4216 4.30301 13.9267 4.30298H17.7358ZM16.3075 7.63694C16.3075 7.48961 16.2573 7.3483 16.168 7.24412C16.0788 7.13994 15.9577 7.08142 15.8314 7.08142C15.7051 7.08142 15.584 7.13994 15.4948 7.24412C15.4055 7.3483 15.3553 7.48961 15.3553 7.63694V18.7491C15.3553 18.8964 15.4055 19.0377 15.4948 19.1419C15.584 19.246 15.7051 19.3046 15.8314 19.3046C15.9577 19.3046 16.0788 19.246 16.168 19.1419C16.2573 19.0377 16.3075 18.8964 16.3075 18.7491V7.63694Z" fill="black"/>
<path d="M27.999 19.8599C27.9989 20.4494 27.7982 21.0148 27.441 21.4316C27.0838 21.8484 26.5993 22.0825 26.0941 22.0825H20.7134C20.6251 22.0824 20.5404 22.0415 20.4779 21.9686C20.4155 21.8957 20.3804 21.7969 20.3804 21.6938V4.69181C20.3803 4.58874 20.4154 4.48987 20.4778 4.41695C20.5403 4.34403 20.6249 4.30305 20.7133 4.30298H26.094C26.5992 4.30298 27.0837 4.53718 27.4409 4.95402C27.7981 5.37085 27.9988 5.93617 27.9988 6.52566L27.999 19.8599ZM23.7133 19.3047H24.1896C24.3159 19.3047 24.437 19.2461 24.5263 19.1419C24.6155 19.0377 24.6657 18.8964 24.6657 18.749V7.63694C24.6658 7.56396 24.6534 7.4917 24.6295 7.42427C24.6056 7.35683 24.5706 7.29555 24.5263 7.24394C24.4821 7.19232 24.4296 7.15135 24.3718 7.12342C24.314 7.0955 24.2521 7.08116 24.1896 7.08118H23.7133V19.3047Z" fill="black"/>
<path d="M28.7392 19.8604V6.52529C28.7392 5.936 28.9397 5.37083 29.2968 4.95408C29.6538 4.53733 30.1381 4.30311 30.6432 4.30298H34.4523C34.9575 4.30298 35.4421 4.53716 35.7993 4.95402C36.1565 5.37088 36.3572 5.93626 36.3572 6.52579V10.0259C36.3572 10.077 36.3486 10.1275 36.3319 10.1747C36.3152 10.2218 36.2906 10.2647 36.2597 10.3008C36.2287 10.3369 36.192 10.3655 36.1516 10.385C36.1112 10.4046 36.0679 10.4146 36.0241 10.4146H33.357C33.3133 10.4146 33.27 10.4046 33.2295 10.385C33.1891 10.3655 33.1524 10.3369 33.1215 10.3008C33.0906 10.2647 33.066 10.2218 33.0493 10.1747C33.0325 10.1275 33.0239 10.077 33.0239 10.0259V7.66018C33.0258 7.51293 32.9788 7.37053 32.8929 7.26269C32.8069 7.15486 32.6886 7.0899 32.5626 7.08142C32.4989 7.07912 32.4353 7.09181 32.3758 7.11869C32.3164 7.14557 32.2621 7.18608 32.2163 7.23789C32.1705 7.2897 32.134 7.35173 32.1092 7.42028C32.0843 7.48883 32.0715 7.5625 32.0714 7.63694V18.7257C32.0696 18.8731 32.1166 19.0156 32.2027 19.1234C32.2887 19.2312 32.4072 19.296 32.5333 19.3043C32.597 19.3066 32.6605 19.2939 32.72 19.267C32.7794 19.2401 32.8337 19.1995 32.8794 19.1477C32.9252 19.0959 32.9615 19.0339 32.9864 18.9653C33.0112 18.8968 33.0239 18.8231 33.0239 18.7487V16.3596C33.0239 16.2565 33.059 16.1577 33.1215 16.0848C33.184 16.0119 33.2687 15.9709 33.357 15.9709H36.0242C36.068 15.9709 36.1113 15.9809 36.1517 16.0004C36.1921 16.02 36.2289 16.0486 36.2598 16.0847C36.2908 16.1208 36.3153 16.1636 36.332 16.2108C36.3488 16.258 36.3574 16.3086 36.3574 16.3596V19.8604C36.3574 20.1522 36.3081 20.4412 36.2124 20.7109C36.1166 20.9805 35.9764 21.2255 35.7995 21.4319C35.6226 21.6383 35.4126 21.802 35.1815 21.9136C34.9504 22.0253 34.7028 22.0828 34.4527 22.0828H30.6435C30.3933 22.0829 30.1457 22.0254 29.9145 21.9137C29.6834 21.802 29.4735 21.6383 29.2966 21.432C29.1197 21.2256 28.9794 20.9805 28.8837 20.7109C28.788 20.4412 28.7387 20.1523 28.7388 19.8604H28.7392Z" fill="black"/>
<path d="M41.6536 19.3046H40.2139L40.0061 21.7325C39.9979 21.8284 39.9594 21.9174 39.8982 21.9821C39.8369 22.0468 39.7573 22.0826 39.6746 22.0826H37.4965C37.4493 22.0826 37.4025 22.0709 37.3595 22.0482C37.3164 22.0255 37.278 21.9925 37.2467 21.9511C37.2155 21.9098 37.1921 21.8612 37.1782 21.8085C37.1642 21.7558 37.16 21.7003 37.1659 21.6456L38.9874 4.64382C38.9975 4.54984 39.0366 4.46341 39.0975 4.40074C39.1583 4.33807 39.2367 4.30348 39.3179 4.30347H42.5388C42.6199 4.30348 42.6983 4.33806 42.7591 4.40074C42.82 4.46341 42.8591 4.54985 42.8692 4.64382L44.6907 21.6456C44.6966 21.7003 44.6925 21.7558 44.6785 21.8085C44.6646 21.8612 44.6412 21.9098 44.61 21.9511C44.5787 21.9925 44.5402 22.0256 44.4972 22.0483C44.4541 22.071 44.4074 22.0826 44.3601 22.0826H42.1838C42.1009 22.0826 42.021 22.0466 41.9597 21.9815C41.8984 21.9165 41.86 21.8271 41.8522 21.7308L41.6536 19.3046ZM41.3815 15.9709L40.9278 10.4145L40.4744 15.9709H41.3815Z" fill="black"/>
<path d="M48.8108 9.58228C48.8058 10.1004 48.9769 10.5997 49.2867 10.971L52.6199 14.8606C52.7751 15.0429 52.8973 15.2599 52.9791 15.4985C53.0609 15.7371 53.1008 15.9924 53.0962 16.2494V19.861C53.0962 20.4504 52.8955 21.0157 52.5383 21.4325C52.1811 21.8493 51.6966 22.0835 51.1915 22.0835H47.3822C47.1321 22.0835 46.8844 22.026 46.6533 21.9143C46.4222 21.8026 46.2123 21.6389 46.0354 21.4325C45.8585 21.2262 45.7183 20.9811 45.6226 20.7115C45.5268 20.4418 45.4776 20.1528 45.4776 19.861V16.3606C45.4776 16.2575 45.5127 16.1586 45.5752 16.0857C45.6376 16.0128 45.7224 15.9719 45.8107 15.9719H48.4777C48.5661 15.9719 48.6508 16.0128 48.7133 16.0857C48.7757 16.1586 48.8108 16.2575 48.8108 16.3606V18.731C48.8092 18.8684 48.8502 19.0018 48.9263 19.1065C49.0024 19.2113 49.1085 19.2803 49.2249 19.3008C49.292 19.3111 49.3603 19.3045 49.4251 19.2815C49.4899 19.2585 49.5498 19.2197 49.6007 19.1675C49.6516 19.1154 49.6924 19.0512 49.7204 18.9792C49.7484 18.9072 49.7628 18.8291 49.7629 18.7501V16.8053C49.7679 16.287 49.5967 15.7874 49.2867 15.4161L45.9539 11.5266C45.645 11.1546 45.4739 10.6558 45.4776 10.1378V6.52624C45.4776 6.23441 45.5268 5.94542 45.6225 5.6758C45.7182 5.40618 45.8585 5.1612 46.0353 4.95484C46.2122 4.74848 46.4221 4.58479 46.6532 4.47311C46.8842 4.36142 47.1319 4.30393 47.382 4.30393H51.1911C51.6964 4.30393 52.1809 4.53811 52.5381 4.95497C52.8954 5.37183 53.0961 5.93721 53.0961 6.52673V10.0264C53.0961 10.1295 53.061 10.2283 52.9985 10.3012C52.936 10.3741 52.8513 10.4151 52.7629 10.4151H50.096C50.0076 10.4151 49.9229 10.3741 49.8604 10.3012C49.7979 10.2283 49.7629 10.1295 49.7629 10.0264V7.66101C49.7648 7.51372 49.7178 7.3713 49.6318 7.26345C49.5458 7.15561 49.4275 7.09066 49.3014 7.08225C49.2377 7.07991 49.1742 7.09254 49.1147 7.11939C49.0552 7.14624 49.0009 7.1868 48.9551 7.23859C48.9093 7.29038 48.8729 7.35238 48.848 7.42092C48.8231 7.48945 48.8103 7.56309 48.8103 7.63752L48.8108 9.58228Z" fill="black"/>
<path d="M61.4759 4.6926V6.69307C61.4759 6.79618 61.4407 6.89504 61.3782 6.96793C61.3157 7.04083 61.231 7.08178 61.1427 7.08178H59.333V21.6944C59.333 21.7454 59.3244 21.796 59.3076 21.8431C59.2909 21.8903 59.2664 21.9332 59.2354 21.9693C59.2045 22.0054 59.1678 22.0339 59.1273 22.0534C59.0869 22.073 59.0436 22.0831 58.9999 22.083H56.3331C56.2894 22.0831 56.246 22.073 56.2056 22.0535C56.1652 22.034 56.1285 22.0053 56.0975 21.9693C56.0666 21.9332 56.042 21.8904 56.0253 21.8432C56.0085 21.7961 55.9999 21.7455 55.9999 21.6944V7.08165H54.1905C54.1022 7.08165 54.0175 7.04071 53.955 6.96781C53.8925 6.89491 53.8574 6.79604 53.8574 6.69295V4.69241C53.8574 4.64135 53.866 4.59085 53.8827 4.54367C53.8995 4.49649 53.924 4.4536 53.955 4.41749C53.9859 4.38138 54.0226 4.35272 54.063 4.33318C54.1035 4.31364 54.1468 4.30358 54.1905 4.30358H61.1427C61.1864 4.30356 61.2298 4.31364 61.2702 4.33318C61.3107 4.35272 61.3474 4.38136 61.3783 4.41749C61.4093 4.45361 61.4338 4.49653 61.4506 4.54373C61.4673 4.59093 61.4759 4.64152 61.4759 4.6926V4.6926Z" fill="black"/>
<path d="M67.3582 22.0645H62.5489C62.4606 22.0645 62.3759 22.0235 62.3134 21.9506C62.2509 21.8777 62.2158 21.7789 62.2158 21.6758V4.67378C62.2158 4.62273 62.2244 4.57222 62.2411 4.52504C62.2579 4.47787 62.2824 4.43497 62.3134 4.39886C62.3443 4.36275 62.381 4.3341 62.4214 4.31455C62.4619 4.29501 62.5052 4.28495 62.5489 4.28495H65.2155C65.3038 4.28499 65.3886 4.326 65.451 4.39892C65.5135 4.47184 65.5486 4.57068 65.5486 4.67378V19.2866H67.3583C67.402 19.2866 67.4453 19.2967 67.4857 19.3162C67.5261 19.3357 67.5629 19.3643 67.5938 19.4004C67.6247 19.4365 67.6493 19.4794 67.666 19.5266C67.6828 19.5737 67.6914 19.6243 67.6914 19.6753V21.6758C67.6914 21.7268 67.6828 21.7774 67.666 21.8246C67.6493 21.8717 67.6247 21.9146 67.5938 21.9507C67.5628 21.9868 67.5261 22.0154 67.4856 22.0349C67.4452 22.0545 67.4019 22.0646 67.3582 22.0645Z" fill="black"/>
<path d="M68.7739 4.30298H73.8213C73.9096 4.30298 73.9943 4.34389 74.0567 4.41676C74.1192 4.48963 74.1543 4.58849 74.1544 4.69156V6.69247C74.1544 6.74352 74.1458 6.79405 74.1291 6.84121C74.1123 6.88837 74.0878 6.93124 74.0569 6.96733C74.0259 7.00342 73.9891 7.032 73.9487 7.05152C73.9083 7.07103 73.865 7.08109 73.8213 7.08105H71.7736V11.526H73.8214C73.9097 11.526 73.9944 11.567 74.0569 11.6399C74.1194 11.7128 74.1545 11.8117 74.1545 11.9147V14.4713C74.1545 14.5744 74.1194 14.6733 74.0569 14.7462C73.9944 14.8191 73.9097 14.86 73.8214 14.86H71.7736V19.3047H73.821C73.9094 19.3048 73.9941 19.3457 74.0565 19.4186C74.119 19.4915 74.154 19.5904 74.154 19.6934V21.6939C74.1541 21.745 74.1455 21.7956 74.1287 21.8427C74.112 21.8899 74.0875 21.9327 74.0565 21.9688C74.0256 22.0049 73.9888 22.0336 73.9484 22.0531C73.908 22.0726 73.8647 22.0826 73.8209 22.0826H68.7731C68.6847 22.0826 68.6 22.0417 68.5375 21.9688C68.475 21.8959 68.4399 21.797 68.4399 21.6939V4.69206C68.4399 4.6409 68.4485 4.59027 68.4653 4.54301C68.4821 4.49574 68.5066 4.45279 68.5377 4.41664C68.5687 4.38049 68.6055 4.35183 68.6461 4.33233C68.6866 4.31282 68.73 4.30286 68.7739 4.30298V4.30298Z" fill="black"/>
<path d="M81.5444 5.64864L77.2258 0.6095L77.2116 0.592738L77.2018 0.581273V0.58227C76.8751 0.209228 76.4363 0.000385085 75.9792 0.000396729H1.75432C1.28919 0.00100478 0.843273 0.216853 0.514383 0.600652C0.185494 0.98445 0.000492098 1.50485 0 2.04761V24.3303C9.42489e-05 24.6372 0.059439 24.9401 0.173606 25.2166C0.287773 25.4931 0.453833 25.7359 0.659473 25.9273L4.73551 30.6834C4.89949 30.9247 5.10808 31.1196 5.34569 31.2536C5.5833 31.3876 5.84381 31.4572 6.10772 31.4572H10.7138V32.8691C10.7119 33.1537 10.7616 33.4356 10.8596 33.6962C10.9576 33.9568 11.1017 34.1903 11.2825 34.3813L15.4995 39.3019C15.6671 39.5204 15.872 39.6954 16.1011 39.8158C16.3301 39.9361 16.5783 39.9991 16.8295 40.0006C17.2725 39.9992 17.6982 39.8001 18.0194 39.4442L25.2305 31.5754C25.3001 31.4994 25.3919 31.4571 25.4873 31.4572H80.3327C80.7978 31.4566 81.2437 31.2407 81.5726 30.857C81.9014 30.4732 82.0865 29.9529 82.087 29.4102V7.12694C82.0871 6.8505 82.039 6.57691 81.9458 6.3228C81.8525 6.06868 81.716 5.83932 81.5444 5.64864V5.64864ZM10.3381 24.7681H1.75422C1.65461 24.768 1.55913 24.7218 1.48868 24.6396C1.41824 24.5575 1.37858 24.4461 1.37844 24.3298V2.04705C1.37852 1.93078 1.41815 1.81932 1.4886 1.7371C1.55905 1.65489 1.65458 1.60866 1.75422 1.60855H75.9792C76.0788 1.60866 76.1743 1.65489 76.2448 1.7371C76.3152 1.81932 76.3548 1.9308 76.3548 2.04705V24.3298C76.3547 24.446 76.3151 24.5575 76.2447 24.6396C76.1743 24.7218 76.0788 24.768 75.9792 24.7681H21.1342C20.6891 24.7674 20.2606 24.9648 19.9359 25.3201L12.7248 33.1888C12.6713 33.2472 12.6044 33.286 12.5322 33.3006C12.46 33.3151 12.3858 33.3048 12.3186 33.2707C12.2514 33.2367 12.1941 33.1805 12.1539 33.109C12.1138 33.0375 12.0924 32.9539 12.0924 32.8684V26.8152C12.0919 26.2725 11.9069 25.7522 11.578 25.3684C11.2491 24.9846 10.8032 24.7687 10.3381 24.7681V24.7681Z" fill="black"/>
</g>
<defs>
<clipPath id="clip0_7_24">
<rect width="82.087" height="40" fill="white"/>
</clipPath>
</defs>
</svg>
