<svg width="90" height="24" viewBox="0 0 90 24" fill="none" xmlns="http://www.w3.org/2000/svg">
<path d="M38.1176 24H33.1765V7.76471H38.1176V24ZM12 4.23529C12.24 4.23529 12.4765 4.26 12.7059 4.30588V0.127059C12.2471 0.0423529 11.7776 0 11.2941 0C7.00588 0 3.52941 3.47647 3.52941 7.76471H0V12H3.52941V24H8.47059V12H12V7.76471H8.47059C8.47059 5.81647 10.0518 4.23529 12 4.23529ZM35.6471 1.41176C34.2812 1.41176 33.1765 2.51647 33.1765 3.88235C33.1765 5.24824 34.2812 6.35294 35.6471 6.35294C37.0129 6.35294 38.1176 5.24824 38.1176 3.88235C38.1176 2.51647 37.0129 1.41176 35.6471 1.41176ZM86.8235 18.3529C85.2635 18.3529 84 19.6165 84 21.1765C84 22.7365 85.2635 24 86.8235 24C88.3835 24 89.6471 22.7365 89.6471 21.1765C89.6471 19.6165 88.3835 18.3529 86.8235 18.3529ZM30.3529 7.76471V24H25.4118V22.5776C24.1059 23.4741 22.5282 24 20.8235 24C16.3412 24 12.7059 20.3647 12.7059 15.8824C12.7059 11.4 16.3412 7.76471 20.8235 7.76471C22.5282 7.76471 24.1059 8.29059 25.4118 9.18706V7.76471H30.3529ZM25.4118 15.8824C25.4118 13.7365 23.6753 12 21.5294 12C19.3835 12 17.6471 13.7365 17.6471 15.8824C17.6471 18.0282 19.3835 19.7647 21.5294 19.7647C23.6753 19.7647 25.4118 18.0282 25.4118 15.8824ZM52.9412 7.76471H40.2353V12H47.2941L40.2353 19.7647V24H52.9412V19.7647H45.8824L52.9412 12V7.76471ZM79.4118 9.18353V7.76471H74.4706V24H79.4118V15.8824C79.4118 13.5424 81.3071 11.6471 83.6471 11.6471C83.7671 11.6471 83.8835 11.6506 84 11.6612V7.76471C82.2988 7.76471 80.7176 8.29059 79.4118 9.18353ZM66.7059 7.76471V10.5106V16.4224C66.7059 18.2753 65.2059 19.7753 63.3529 19.7753C61.5 19.7753 60 18.2753 60 16.4224V9.60706V7.76471H55.0588V16.5882C55.0588 20.6824 58.3765 24 62.4706 24C64.0482 24 65.5059 23.5059 66.7059 22.6659V24H71.6471V7.76471H66.7059Z" fill="white"/>
</svg>
