<svg width="92" height="33" viewBox="0 0 92 33" fill="none" xmlns="http://www.w3.org/2000/svg">
<path d="M4.15295 15.5099H7.21169L14.1095 0.700363H11.4609L5.67378 12.3999L2.803 3.54835H0.0860214L4.15295 15.5099Z" fill="white"/>
<path d="M15.9943 15.5099H18.5575V3.54835H15.9943V15.5099Z" fill="white"/>
<path d="M21.4377 15.5099H24.0009V11.4942H26.154L28.1703 15.5099H31.0069L28.6488 10.8962C29.8962 10.2981 30.6994 9.06775 30.6994 7.52984C30.6994 5.10335 28.9393 3.54835 26.3078 3.54835H21.4377V15.5099ZM26.1027 5.68434C27.316 5.68434 28.0849 6.40204 28.0849 7.52984C28.0849 8.64056 27.316 9.35825 26.1027 9.35825H24.0009V5.68434H26.1027Z" fill="white"/>
<path d="M32.0049 5.7527H35.4566V15.5099H38.0198V5.7527H41.4887V3.54835H32.0049V5.7527Z" fill="white"/>
<path d="M43.62 10.3493C43.62 13.7498 45.3117 15.6124 48.5242 15.6124C51.7538 15.6124 53.4455 13.7498 53.4455 10.3493V3.54835H50.8823V10.4861C50.8823 12.3828 50.1817 13.4081 48.5242 13.4081C46.8838 13.4081 46.1832 12.3828 46.1832 10.4861V3.54835H43.62V10.3493Z" fill="white"/>
<path d="M57.2318 15.5099L58.1546 12.8955H62.7L63.6227 15.5099H66.3739L62.0336 3.54835H58.9577L54.5832 15.5099H57.2318ZM60.4102 6.28242L61.9994 10.8278H58.8381L60.4102 6.28242Z" fill="white"/>
<path d="M75.6397 15.5099V13.3056H70.8892V3.54835H68.3261V15.5099H75.6397Z" fill="white"/>
<path d="M1.1113 32.5978H9.33059V30.3935H3.67449V27.6252H8.11735V25.5234H3.67449V22.8406H9.14263V20.6363H1.1113V32.5978Z" fill="white"/>
<path d="M11.7278 32.5978H14.1714V24.5836L17.2814 32.5978H19.3661L22.4762 24.5836V32.5978H24.9197V20.6363H21.6218L18.4092 29.4195L15.0942 20.6363H11.7278V32.5978Z" fill="white"/>
<path d="M27.8179 32.5978H30.3811V28.5822H32.6879C35.2853 28.5822 37.0112 27.0272 37.0112 24.6178C37.0112 22.1913 35.2853 20.6363 32.6879 20.6363H27.8179V32.5978ZM32.4487 22.7723C33.6449 22.7723 34.4138 23.4729 34.4138 24.6178C34.4138 25.7456 33.6449 26.4462 32.4487 26.4462H30.3811V22.7723H32.4487Z" fill="white"/>
<path d="M46.6158 32.5978V30.3935H41.8653V20.6363H39.3022V32.5978H46.6158Z" fill="white"/>
<path d="M59.3635 26.6171C59.3635 23.1311 56.9541 20.5338 53.434 20.5338C49.9139 20.5338 47.5045 23.1311 47.5045 26.6171C47.5045 30.103 49.9139 32.7004 53.434 32.7004C56.9541 32.7004 59.3635 30.103 59.3635 26.6171ZM50.119 26.6171C50.119 24.3615 51.4176 22.7039 53.434 22.7039C55.4333 22.7039 56.732 24.3615 56.732 26.6171C56.732 28.8727 55.4333 30.5302 53.434 30.5302C51.4176 30.5302 50.119 28.8727 50.119 26.6171Z" fill="white"/>
<path d="M64.252 28.155V32.5978H66.8152V28.155L71.2068 20.6363H68.3531L65.5336 25.5405L62.8508 20.6363H59.8604L64.252 28.155Z" fill="white"/>
<path d="M73.0875 32.5978H81.3068V30.3935H75.6507V27.6252H80.0936V25.5234H75.6507V22.8406H81.1189V20.6363H73.0875V32.5978Z" fill="white"/>
<path d="M83.7041 32.5978H91.9234V30.3935H86.2673V27.6252H90.7101V25.5234H86.2673V22.8406H91.7354V20.6363H83.7041V32.5978Z" fill="white"/>
</svg>
