<svg width="96" height="20" viewBox="0 0 96 20" fill="none" xmlns="http://www.w3.org/2000/svg">
<g clip-path="url(#clip0_812:1319)">
<path d="M1.1543 1.32837C3.3278 1.33222 5.49746 1.28991 7.67096 1.33991C10.2431 1.48991 12.524 3.23607 13.7506 5.4553C14.9965 7.80914 16.0851 10.2438 17.3463 12.5899C17.7603 13.4168 18.5806 13.9938 19.516 14.0168C19.4815 9.78222 19.5006 5.5476 19.5045 1.31299C21.4096 1.32837 23.3148 1.32068 25.2161 1.32453C25.2085 3.17068 25.22 5.01299 25.1931 6.85914C23.8706 7.36684 22.7628 8.54376 22.7321 10.0245C22.5481 11.6399 23.7365 13.0707 25.197 13.5861C25.2238 15.4399 25.2008 17.2938 25.22 19.1476C23.3263 19.163 21.4326 19.1476 19.5428 19.163C17.3501 19.2745 15.1843 18.2438 13.7698 16.5861C12.2288 14.6861 11.4276 12.3207 10.2431 10.2015C9.44196 8.72837 8.87463 6.5053 6.85063 6.40914C6.85446 10.6515 6.83146 14.8938 6.86596 19.1361C4.96463 19.1668 3.05946 19.1591 1.15813 19.1438C1.17346 13.2053 1.1773 7.26684 1.1543 1.32837Z" fill="white"/>
<path d="M26.8789 1.33454C42.9904 1.323 59.1019 1.28839 75.2134 1.34992C77.6131 5.73454 80.0741 10.0807 82.4584 14.473C84.8389 10.123 87.0277 5.66531 89.3929 1.30762C91.4131 1.34608 93.4332 1.28069 95.4572 1.35377C95.1199 1.84992 94.7787 2.33839 94.4951 2.86916C91.6507 8.30377 88.7757 13.7268 85.9122 19.1538C83.6046 19.1538 81.2969 19.1499 78.9892 19.1538C76.4937 14.6076 73.9369 10.0922 71.4337 5.54993C68.8922 5.523 66.3507 5.54608 63.8092 5.53839C63.8054 10.0768 63.8284 14.6153 63.7977 19.1499C61.9731 19.1538 60.1446 19.1576 58.3199 19.1461C58.3199 14.6076 58.3429 10.0653 58.3084 5.523C55.5062 5.55377 52.7041 5.53069 49.9057 5.53839C50.4156 7.48839 50.3696 9.51531 50.3044 11.5115C50.2201 13.5461 49.6796 15.6999 48.1731 17.1538C46.7279 18.6499 44.5582 19.1653 42.5419 19.1576C37.3286 19.1422 32.1152 19.173 26.9019 19.1384C26.9172 17.2845 26.8942 15.4307 26.9249 13.5807C28.1554 13.0999 29.2364 12.0653 29.3514 10.6884C29.6197 9.00377 28.4582 7.43454 26.9211 6.86916C26.8942 5.023 26.9364 3.17685 26.8789 1.33454ZM32.4334 5.573C32.4794 8.673 32.4487 11.7768 32.4526 14.8768C35.5729 14.9192 38.6932 14.8922 41.8174 14.8961C43.0441 14.9499 44.4892 14.273 44.6579 12.923C44.7576 11.1922 44.7307 9.44993 44.6732 7.71531C44.5544 6.30762 43.0939 5.52685 41.8059 5.55377C38.6817 5.53839 35.5576 5.49993 32.4334 5.573Z" fill="white"/>
<path d="M22.7317 10.0228C22.7624 8.54202 23.8702 7.3651 25.1927 6.8574C25.7677 6.79587 26.3466 6.79971 26.9216 6.86894C28.4587 7.43433 29.6202 9.00356 29.3519 10.6882C29.2369 12.0651 28.1559 13.0997 26.9254 13.5805C26.3504 13.6382 25.7754 13.642 25.1966 13.5843C23.7361 13.0689 22.5477 11.6382 22.7317 10.0228Z" fill="#EE0000"/>
</g>
<defs>
<clipPath id="clip0_812:1319">
<rect width="95.8333" height="20" fill="white"/>
</clipPath>
</defs>
</svg>
