<svg width="153" height="16" viewBox="0 0 153 16" fill="none" xmlns="http://www.w3.org/2000/svg">
<path fill-rule="evenodd" clip-rule="evenodd" d="M0 15.5784L2.57259 0.422399H6.47272L9.50742 8.50298L12.523 0.421636H16.4224L18.995 15.5784H15.0758L13.7696 6.85463L10.1911 15.5776H8.62367L5.22691 6.85463L3.92075 15.5776H0V15.5784ZM24.9254 8.00038C24.9254 8.60381 25.0392 9.15912 25.2668 9.66859C25.7086 10.6736 26.5282 11.4644 27.5484 11.87C28.064 12.077 28.6101 12.1808 29.1868 12.1808C30.3035 12.1864 31.3796 11.7619 32.1917 10.9954C32.5876 10.6191 32.9051 10.1682 33.1259 9.66859C33.3573 9.14318 33.4739 8.57446 33.4681 8.00038C33.4681 7.39696 33.3535 6.84089 33.1259 6.33217C32.9051 5.83262 32.5876 5.3817 32.1917 5.00539C31.3795 4.2384 30.3032 3.8136 29.186 3.81916C28.6093 3.81916 28.0632 3.92304 27.5476 4.13081C26.5276 4.53617 25.708 5.32665 25.2661 6.33141C25.0349 6.85713 24.9185 7.42611 24.9246 8.00038H24.9254ZM20.8045 8.00038C20.8045 6.87449 21.0123 5.82575 21.4278 4.85416C21.8307 3.90091 22.4182 3.03674 23.1563 2.31136C23.8934 1.58801 24.7741 1.02201 25.7992 0.613357C26.8243 0.203943 27.9532 0 29.186 0C30.4059 0 31.531 0.203943 32.5637 0.613357C33.5949 1.02201 34.4832 1.58801 35.2264 2.31136C35.9701 3.03465 36.5615 3.8995 36.9657 4.85492C37.3812 5.82575 37.589 6.87449 37.589 8.00038C37.589 9.12551 37.3812 10.1742 36.9657 11.1458C36.5615 12.1013 35.9701 12.9661 35.2264 13.6894C34.4832 14.412 33.5949 14.9788 32.5637 15.3874C31.5318 15.7961 30.4059 16 29.1868 16C27.954 16 26.8243 15.7961 25.7992 15.3874C24.7741 14.9788 23.8934 14.412 23.1563 13.6886C22.4182 12.9633 21.8308 12.0991 21.4278 11.1458C21.0123 10.1742 20.8045 9.12551 20.8045 8.00038V8.00038ZM40.0813 15.5776V0.423164H44.0212L51.2975 9.68922V0.422399H55.2175V15.5784H51.2975L44.0212 6.31155V15.5784H40.0813V15.5776ZM67.0164 3.75882H62.3326V6.29169H66.7551V9.62811H62.3326V12.2412H67.0164V15.5784H58.3927V0.422399H67.0164V3.75882V3.75882ZM73.509 8.30133L67.9811 0.422399H72.6848L75.4987 4.56237L78.2928 0.422399H82.9965L77.4488 8.30133V15.5784H73.509V8.30133V8.30133ZM83.7 15.5784L86.2726 0.422399H90.1727L93.2074 8.50298L96.223 0.421636H100.122L102.695 15.5784H98.7758L97.4689 6.85463L93.8911 15.5776H92.3229L88.9261 6.85463L87.62 15.5776H83.7V15.5784ZM108.625 8.00038C108.625 8.60381 108.739 9.15912 108.967 9.66859C109.187 10.1663 109.5 10.6168 109.891 10.9954C110.282 11.3721 110.743 11.6689 111.248 11.8692C111.764 12.077 112.31 12.1808 112.886 12.1808C114.003 12.1869 115.08 11.7624 115.892 10.9954C116.288 10.619 116.605 10.1681 116.826 9.66859C117.057 9.14325 117.174 8.57448 117.168 8.00038C117.168 7.39696 117.054 6.84089 116.826 6.33217C116.605 5.83266 116.288 5.38175 115.892 5.00539C115.08 4.23813 114.003 3.81328 112.886 3.81916C112.31 3.81916 111.764 3.92304 111.248 4.13081C110.743 4.33132 110.282 4.6284 109.891 5.00539C109.5 5.38378 109.187 5.83403 108.967 6.33141C108.736 6.85715 108.619 7.42612 108.625 8.00038V8.00038ZM104.505 8.00038C104.505 6.87449 104.712 5.82575 105.128 4.85416C105.53 3.90075 106.118 3.03653 106.856 2.31136C107.593 1.58801 108.474 1.02201 109.499 0.613357C110.524 0.203943 111.653 0 112.886 0C114.106 0 115.232 0.203943 116.264 0.613357C117.295 1.02201 118.183 1.58801 118.926 2.31136C119.67 3.03465 120.261 3.8995 120.666 4.85492C121.081 5.82575 121.288 6.87449 121.288 8.00038C121.288 9.12551 121.081 10.1742 120.666 11.1458C120.261 12.1013 119.67 12.9661 118.926 13.6894C118.183 14.412 117.295 14.9788 116.264 15.3874C115.232 15.7961 114.106 16 112.886 16C111.653 16 110.524 15.7961 109.499 15.3874C108.474 14.9788 107.593 14.412 106.856 13.6886C106.118 12.9635 105.53 12.0992 105.128 11.1458C104.712 10.1742 104.505 9.12551 104.505 8.00038ZM127.721 0.422399V8.66415C127.721 9.10565 127.737 9.55784 127.771 10.02C127.798 10.4532 127.9 10.8784 128.073 11.2765C128.24 11.6515 128.505 11.9563 128.867 12.1915C129.228 12.4253 129.738 12.5429 130.395 12.5429C131.051 12.5429 131.556 12.4253 131.912 12.1915C132.258 11.9677 132.533 11.6505 132.706 11.2765C132.885 10.8801 132.991 10.4543 133.018 10.02C133.051 9.56853 133.068 9.11604 133.068 8.66339V0.421636H136.987V9.20571C136.987 11.5644 136.448 13.2869 135.369 14.3723C134.29 15.4569 132.632 16 130.395 16C128.157 16 126.494 15.4577 125.409 14.3723C124.324 13.2869 123.781 11.5644 123.781 9.20648V0.422399H127.721V0.422399ZM144.103 7.19607H144.847C145.624 7.19607 146.22 7.03566 146.636 6.71409C147.052 6.39175 147.259 5.92963 147.259 5.32697C147.259 4.72354 147.052 4.26142 146.636 3.93985C146.22 3.61828 145.624 3.45711 144.847 3.45711H144.103V7.19607ZM152.767 15.5784H147.862L144.103 9.7488V15.5784H140.163V0.422399H146.294C147.139 0.422399 147.875 0.54614 148.505 0.793622C149.135 1.04187 149.654 1.38025 150.063 1.80952C150.472 2.23727 150.78 2.73376 150.988 3.2967C151.195 3.85965 151.299 4.46231 151.299 5.10546C151.299 6.25808 151.021 7.19301 150.465 7.90949C149.909 8.62672 149.088 9.11252 148.002 9.36688L152.767 15.5784Z" fill="white"/>
</svg>
