<svg width="90" height="40" viewBox="0 0 90 40" fill="none" xmlns="http://www.w3.org/2000/svg">
<path fill-rule="evenodd" clip-rule="evenodd" d="M0.135594 0.0147617C1.0349 0.0147617 1.91394 0.0100873 2.78052 0.00697007C4.67576 -0.000822874 6.50866 -0.00861546 8.34157 0.0225563C10.5797 0.0599625 12.8194 0.120746 15.0591 0.181531C16.6442 0.223613 18.2308 0.267253 19.819 0.301542C21.4135 0.335831 23.0095 0.352977 24.6055 0.370121C28.0546 0.405969 31.5038 0.443374 34.942 0.653783C36.75 0.764443 38.5424 1.09954 40.3378 1.4362C41.5742 1.67995 42.8175 1.88733 44.066 2.05807C45.5467 2.2451 47.0772 2.16873 48.5688 2.03002C49.0535 1.98326 49.5273 1.82273 50.0011 1.66063C50.4562 1.50478 50.9113 1.35047 51.3773 1.29748C51.848 1.24449 52.5463 1.58738 52.8253 1.98015C53.0248 2.26381 52.8751 3.07583 52.5915 3.38287C50.7601 5.36228 48.3552 6.2008 45.7462 6.22106C43.946 6.23197 42.8051 6.6076 41.7593 8.32516C37.5246 15.2765 33.2026 22.1763 28.8822 29.0762C26.8436 32.3337 24.8034 35.588 22.7741 38.8486C22.0338 40.0393 21.0207 40.3152 19.9546 39.6357C18.5207 38.7223 17.2037 37.6157 15.8976 36.5185L15.8088 36.4437C15.5656 36.2411 15.4035 35.5662 15.5516 35.3308C15.7682 34.9895 15.9615 34.6279 16.1563 34.2632C16.8546 32.9618 17.5591 31.651 19.2579 31.3003C22.1148 30.7096 23.954 28.8378 25.4346 26.4999C29.5181 20.0504 33.6016 13.5994 37.6758 7.14219C37.8644 6.8445 38.0249 6.52655 38.2353 6.10885C38.3522 5.87506 38.4862 5.6101 38.6499 5.29838C38.133 5.2108 37.619 5.10736 37.1085 4.98822C36.0206 4.74508 34.9857 4.51441 33.9913 4.6313C32.8114 4.77158 31.6659 5.17525 30.5156 5.57893C29.8735 5.80492 29.2282 6.03092 28.5767 6.21327C28.3429 6.27718 28.1092 6.34575 27.8707 6.41589C26.7937 6.73072 25.698 7.05023 24.6117 7.05023C20.8617 7.04868 17.1117 6.93646 13.3618 6.8258C12.3939 6.79681 11.426 6.76875 10.4581 6.74163L9.68351 6.71981C7.21471 6.65279 4.74278 6.58733 2.28021 6.40965C1.77835 6.37381 1.04269 5.81739 0.8993 5.35293C0.607843 4.41466 0.441085 3.43898 0.252495 2.34797C0.174566 1.89442 0.095074 1.42061 0 0.921862L0.135594 0.0147617V0.0147617ZM39.8438 2.58332L39.9092 2.4072L39.9747 2.23263C39.6505 2.16094 39.3279 2.07366 39.0037 1.98794C38.3055 1.80091 37.6072 1.61388 36.8996 1.57024C32.6166 1.30528 28.3274 1.11824 24.0381 0.932772C21.6342 0.828717 19.2291 0.753901 16.8234 0.708336C12.2468 0.614313 7.66965 0.546771 3.09224 0.505718C2.60492 0.522957 2.1374 0.702939 1.76432 1.01694C1.62716 1.13383 1.8329 1.77909 2.01993 2.10483C2.21631 2.44772 2.4688 2.75476 2.75714 3.107C2.8865 3.26442 3.0221 3.43119 3.16393 3.61354C4.2191 1.90065 5.88367 1.83987 7.03547 2.56929C8.25896 3.34235 9.22685 3.05713 10.3272 2.73138C10.5189 2.67527 10.7137 2.61761 10.9148 2.56306C11.5616 3.68212 12.4703 3.54029 13.5114 3.01972C13.8185 2.86698 14.3936 2.89504 14.6616 3.09298C15.4721 3.69303 16.4042 3.75694 17.3346 3.8224C18.0781 3.87227 18.82 3.92371 19.498 4.24789C19.699 4.34141 20.1105 4.25257 20.2835 4.09515C21.2342 3.21455 22.0618 3.52627 22.891 4.46454C23.5627 2.53656 24.9172 2.53188 26.3729 2.52877C26.8218 2.52877 27.2815 2.52721 27.7335 2.46954C26.9807 3.74135 27.6509 4.0671 28.2635 4.36635C28.5674 4.51441 28.8557 4.65468 28.9555 4.89938C29.5353 4.64845 30.0932 4.3757 30.645 4.10762C31.8747 3.50912 33.0577 2.93244 34.3077 2.66748C35.5436 2.40564 36.8451 2.46798 38.1449 2.52877C38.7138 2.55682 39.2827 2.58332 39.8438 2.58332ZM51.594 2.44304C51.0765 2.49292 50.5482 2.54124 50.0136 2.58955C48.3319 2.74229 46.5753 2.90127 44.825 3.10389C44.5429 3.13506 44.2764 3.31741 44.0114 3.49821C43.8938 3.58087 43.7727 3.65836 43.6483 3.73044C43.773 3.81149 43.893 3.91435 44.0161 4.01566C44.2764 4.23542 44.5382 4.45362 44.8094 4.46765C47.4248 4.58766 49.811 3.91123 51.594 2.4446V2.44304ZM12.1601 6.02313C12.1493 6.00457 12.1379 5.98637 12.1258 5.96857C10.854 5.90623 9.58065 5.84545 8.30884 5.78622L4.31417 5.59451L4.30483 5.8096L4.29702 6.02313H12.1586H12.1601ZM70.3454 24.0186C68.26 24.0311 67.4059 23.2783 67.0443 20.9918C70.8457 22.9728 73.9488 21.623 74.8762 17.7032C75.2456 16.1228 74.9183 14.7512 73.648 13.7054C72.4261 12.7001 71.0654 12.8482 69.7266 13.4482C67.2562 14.5626 65.8473 16.6246 64.7874 19.0186C64.4679 19.7356 64.0783 20.4245 63.6886 21.1134C63.5125 21.4204 63.338 21.729 63.1696 22.0407C63.2226 21.4859 63.2912 20.9435 63.3598 20.4089C63.511 19.2088 63.6559 18.0492 63.6123 16.9005C63.5484 15.3076 62.727 13.9548 61.0655 13.4373C59.4384 12.9277 58.1821 13.629 57.1893 14.8899C56.7825 15.4027 56.3944 15.9295 55.9627 16.5155C55.7616 16.7883 55.5512 17.0751 55.3237 17.379L55.4936 16.5982C55.6011 16.115 55.6915 15.6973 55.7663 15.2765C56.0204 13.8332 55.5434 12.7952 54.5304 12.5411C53.4736 12.2762 52.6912 12.9401 52.3047 14.4317C52.2798 14.5299 52.2626 14.6328 52.247 14.7341C52.2349 14.8155 52.2203 14.8966 52.2034 14.9772L52.1255 15.3419C51.4958 18.3001 50.8646 21.2599 48.603 23.5183C48.2835 23.8347 47.9064 24.0934 47.5276 24.3521C47.3546 24.469 47.1816 24.5875 47.0133 24.7122L46.46 24.3537C46.5582 23.936 46.6455 23.5152 46.7343 23.0944C46.9322 22.1436 47.1317 21.1929 47.4481 20.2811C47.8518 19.1215 48.1183 18.085 47.0585 17.1873C48.7059 15.7955 48.6857 14.8899 47.0912 13.6929C44.8531 12.0159 42.2845 12.1796 40.6698 14.5143C39.4931 16.2179 38.625 18.2393 38.0857 20.2421C37.7007 21.676 37.7709 23.4123 38.2026 24.8431C38.8276 26.916 41.0096 27.1669 42.4825 25.5445C42.7848 25.2125 43.0482 24.8493 43.2711 24.5423C43.3646 24.416 43.4488 24.2991 43.5267 24.1978C43.7138 24.4347 43.8852 24.6888 44.0566 24.9397C44.4369 25.5024 44.8079 26.0526 45.3238 26.3705C45.8584 26.704 46.5473 26.7851 47.1193 26.8537C47.3406 26.8786 47.5448 26.9035 47.7147 26.9394C47.5027 27.6969 47.2829 28.4606 47.0632 29.2274C46.4491 31.372 45.8241 33.5478 45.302 35.7501C45.157 36.3657 45.5638 37.6048 45.9862 37.7451C46.6829 37.9789 47.8487 37.8293 48.3739 37.3508C49.3683 36.4483 50.3315 35.309 50.8007 34.0715C51.7311 31.6307 52.5245 29.1386 53.2773 26.7757C53.5703 25.8562 53.8571 24.9537 54.1438 24.0841C54.6192 26.6916 55.9331 27.4537 58.7339 26.0931C60.0571 25.4494 61.3009 24.6451 62.5306 23.8503C63.0746 23.4996 63.6138 23.1489 64.1578 22.8169C64.856 26.8225 68.1275 28.3967 71.8588 26.4858C74.3476 25.2193 76.4571 23.3168 77.9731 20.9716C78.8537 19.628 79.6689 18.4466 81.5438 19.268C81.748 19.3569 82.0021 19.3304 82.2405 19.307C82.3465 19.2961 82.4494 19.2852 82.5444 19.2852C82.5444 19.7761 82.5273 20.2671 82.5102 20.7534C82.4696 21.9067 82.4307 23.0398 82.6193 24.1339C82.7658 24.988 83.5965 26.2224 84.2885 26.3487C85.099 26.4968 86.3396 25.8421 86.9584 25.147C87.7688 24.2337 88.3829 23.1396 88.9923 22.0501C89.1544 21.7602 89.3165 21.4719 89.4817 21.1866C89.6392 20.9139 89.7062 20.5881 89.7716 20.2624C89.8012 20.1159 89.8308 19.9694 89.8698 19.8275L89.7046 19.7309L89.541 19.6358C89.0048 20.2094 88.5777 20.8921 88.146 21.581C87.2794 22.9634 86.3942 24.3771 84.5753 25.0208C84.2324 22.1093 84.9727 19.8057 86.8165 17.7624C87.214 17.3198 87.4976 16.2849 87.2498 15.8765C86.9334 15.3497 86.0528 15.0411 85.3624 14.9008C85.0444 14.8385 84.6906 14.9694 84.3322 15.1035C84.1472 15.1766 83.9577 15.2375 83.7648 15.2858C82.9793 15.4619 82.1891 15.6287 81.5594 15.7596L80.8877 15.8999C80.749 15.5695 80.643 15.2375 80.5432 14.9273C80.339 14.2883 80.166 13.7428 79.7967 13.5075C79.1841 13.1178 78.1103 13.1256 77.3621 13.3594C76.413 13.6571 75.8612 14.6452 76.215 15.6084C76.4924 16.3644 76.9304 17.0611 77.4105 17.8248C77.6349 18.1801 77.8671 18.5495 78.0962 18.9469C77.2811 20.9606 72.8547 24.0077 70.3454 24.0186V24.0186ZM54.136 22.5769C55.1257 19.8104 56.9275 17.34 59.8888 15.2983C59.9652 15.5788 60.0634 15.8422 60.1538 16.0838C60.3346 16.5623 60.4857 16.966 60.3813 17.287L60.2114 17.817C59.5708 19.8213 58.924 21.8475 57.9577 23.696C57.088 25.3574 56.117 25.1875 55.199 23.5853C55.0821 23.3796 54.8873 23.219 54.6239 23.0008C54.4572 22.8642 54.2946 22.7229 54.136 22.5769V22.5769ZM42.5713 16.9052C43.4955 15.5134 44.2936 15.6365 45.3066 16.7213L44.7783 17.8248C44.4665 18.4716 44.1642 19.0997 43.8649 19.7309C43.7138 20.0504 43.5719 20.3762 43.4285 20.7035C42.7646 22.2309 42.0772 23.8097 40.2443 24.9818C40.2334 24.5766 40.1929 24.1932 40.1555 23.8284C40.0776 23.0803 40.0105 22.4195 40.2085 21.8506C40.8101 20.1315 41.566 18.417 42.5713 16.9052V16.9052ZM70.9937 18.7864C70.0243 19.9444 68.5639 20.0707 66.8775 19.0311C67.0084 18.7662 67.1316 18.4918 67.2547 18.2175C67.5368 17.5879 67.822 16.9535 68.2163 16.394C69.0112 15.25 70.4872 14.8744 71.2384 15.4526C71.9071 15.97 71.7668 17.8622 70.9937 18.788V18.7864ZM46.9073 36.2629L46.421 36.121C46.4148 33.713 47.4637 31.6759 48.6841 29.6997L48.8477 29.7542L49.0114 29.8088L46.9073 36.2613V36.2629Z" fill="white"/>
</svg>
