<svg width="200" height="18" viewBox="0 0 200 18" fill="none" xmlns="http://www.w3.org/2000/svg">
<path fill-rule="evenodd" clip-rule="evenodd" d="M41.6754 16.063H38.3504V6.06604H34.7344V3.16604H45.2724V6.06604H41.6754V16.063ZM59.2794 16.063H55.9544V10.88H50.5974V16.063H47.2724V3.16504H50.5974V7.98004H55.9544V3.16604H59.2794V16.062V16.063ZM71.4694 16.063H62.0144V3.16504H71.4694V6.06504H65.3394V8.07704H71.3344V10.977H65.3404V13.162H71.4704V16.062L71.4694 16.063ZM92.5434 16.063H89.0234L87.0704 7.98004L85.1184 16.062H81.5984L77.9054 3.16604H81.6374L83.5904 11.77L85.7944 3.16504H88.3474L90.5514 11.77L92.4844 3.16504H96.2364L92.5424 16.063H92.5434ZM109.412 16.063H105.641L105.003 14.206H99.9184L99.2804 16.062H95.5104L100.362 3.16604H104.558L109.412 16.062V16.063ZM104.094 11.306L102.47 6.45304L100.826 11.306H104.094ZM122.762 16.063H119.552L114.099 8.59904V16.062H110.773V3.16604H114.196L119.416 10.262V3.16604H122.762V16.062V16.063ZM130.93 16.063H125.496V3.16504H130.91C134.971 3.16504 137.89 5.60204 137.89 9.60504C137.89 13.607 134.971 16.062 130.93 16.062V16.063ZM130.91 13.163C133.173 13.163 134.487 11.519 134.487 9.60404C134.487 7.61304 133.289 6.06604 130.93 6.06604H128.822V13.162H130.91V13.163ZM149.423 16.063H139.968V3.16504H149.423V6.06504H143.293V8.07704H149.288V10.977H143.293V13.162H149.423V16.062V16.063ZM162.773 16.063H158.964L156.798 11.731H155.097V16.062H151.771V3.16604H158.229C161.091 3.16604 162.715 5.06004 162.715 7.45804C162.715 9.70104 161.361 10.9 160.143 11.325L162.773 16.062V16.063ZM157.726 8.83104C158.616 8.83104 159.331 8.34804 159.331 7.43904C159.331 6.54904 158.616 6.06604 157.726 6.06604H155.097V8.83104H157.726ZM168.292 16.063H164.966V3.16504H174.421V6.06504H168.292V8.07704H174.286V10.977H168.292V16.062V16.063ZM182.744 16.294C178.606 16.294 176.634 14.013 176.634 10.842V3.16604H180.018V10.726C180.018 12.253 180.946 13.356 182.744 13.356C184.523 13.356 185.451 12.253 185.451 10.726V3.16604H188.815V10.823C188.815 14.033 186.882 16.294 182.744 16.294ZM200 16.063H191.492V3.16504H194.818V13.162H200V16.062V16.063Z" fill="white"/>
<path d="M20.097 0.491863C19.9922 0.339851 19.852 0.215575 19.6885 0.129726C19.5251 0.0438775 19.3432 -0.000976562 19.1585 -0.000976562C18.9739 -0.000976562 18.792 0.0438775 18.6285 0.129726C18.465 0.215575 18.3249 0.339851 18.22 0.491863L7.55203 15.9199C7.43359 16.0911 7.36428 16.2915 7.35159 16.4993C7.33891 16.7072 7.38333 16.9145 7.48006 17.0989C7.57679 17.2833 7.72212 17.4377 7.90033 17.5454C8.07853 17.6531 8.28281 17.71 8.49103 17.7099H29.826C30.0341 17.7096 30.2382 17.6525 30.4162 17.5448C30.5941 17.437 30.7393 17.2826 30.836 17.0984C30.9326 16.9141 30.9771 16.7069 30.9646 16.4992C30.9521 16.2915 30.8831 16.0912 30.765 15.9199L20.097 0.491863ZM10.495 2.79686C10.3963 2.63953 10.2607 2.50866 10.0999 2.41559C9.93918 2.32253 9.75815 2.27008 9.57255 2.26278C9.38695 2.25549 9.20237 2.29359 9.03482 2.37376C8.86727 2.45393 8.7218 2.57376 8.61103 2.72286L0.224027 14.0429C0.0982805 14.2127 0.0221609 14.4141 0.00415194 14.6246C-0.013857 14.8352 0.0269523 15.0466 0.122032 15.2353C0.217111 15.424 0.362725 15.5826 0.542644 15.6934C0.722564 15.8042 0.929721 15.8629 1.14103 15.8629H6.12603L12.703 6.32986L10.496 2.79686H10.495Z" fill="white"/>
</svg>
