<svg width="160" height="48" viewBox="0 0 160 48" fill="none" xmlns="http://www.w3.org/2000/svg">
<g clip-path="url(#clip0_530:673)">
<path fill-rule="evenodd" clip-rule="evenodd" d="M43.3778 12.2142L40.913 17.8638H45.8434L43.3778 12.2142ZM46.8482 20.1958H39.9082L38.7706 22.699H36.0586L42.013 9.42624H44.7434L50.697 22.699H47.9674L46.849 20.1958H46.8482ZM61.4122 22.7558H58.8146L53.297 9.42624H56.1026L60.1042 19.7598L64.1234 9.42624H66.9298L61.4122 22.7558ZM74.8954 16.195C74.9522 18.3758 76.1274 20.7086 79.2562 20.7086C82.385 20.7086 83.5602 18.3566 83.5986 16.1766C83.6362 13.939 82.385 11.4366 79.2562 11.4366C76.1282 11.4366 74.8386 13.9582 74.8954 16.195ZM86.0626 16.139C86.0258 19.571 83.921 23.003 79.2562 23.003C74.5922 23.003 72.4306 19.6462 72.4306 16.1582C72.4306 12.6694 74.6682 9.16064 79.2562 9.16064C83.8258 9.16064 86.101 12.6694 86.0626 16.1382V16.139ZM104.154 21.0302C102.789 22.3766 101.026 23.0022 99.1106 23.0022C94.1802 23.0022 92.0946 19.6086 92.0762 16.1574C92.057 12.6878 94.313 9.16064 99.1106 9.16064C100.911 9.16064 102.619 9.84384 103.983 11.1894L102.315 12.8022C101.442 11.9478 100.267 11.5494 99.1106 11.5494C95.9066 11.5494 94.5218 13.9398 94.541 16.1574C94.5594 18.3574 95.8298 20.651 99.1106 20.651C100.267 20.651 101.575 20.1774 102.447 19.3054L104.154 21.0302ZM115.475 12.2142L113.01 17.8638H117.94L115.475 12.2142ZM118.945 20.1958H112.006L110.867 22.699H108.156L114.11 9.42624H116.84L122.795 22.699H120.064L118.945 20.1958ZM131.196 20.2918H133.927C136.941 20.2918 138.135 18.0918 138.079 15.9294C138.022 13.8638 136.808 11.7966 133.927 11.7966H131.196V20.291V20.2918ZM140.563 15.9494C140.619 19.3046 138.571 22.699 133.927 22.699H128.712V9.42704H133.927C138.477 9.42704 140.506 12.6686 140.563 15.9494ZM148.831 16.195C148.889 18.3758 150.063 20.7086 153.193 20.7086C156.321 20.7086 157.497 18.3566 157.535 16.1766C157.573 13.939 156.321 11.4366 153.193 11.4366C150.063 11.4366 148.775 13.9582 148.831 16.195ZM159.999 16.139C159.962 19.571 157.857 23.003 153.193 23.003C148.528 23.003 146.367 19.6462 146.367 16.1582C146.367 12.6694 148.604 9.16064 153.193 9.16064C157.762 9.16064 160.037 12.6694 159.999 16.1382V16.139Z" fill="white"/>
<path fill-rule="evenodd" clip-rule="evenodd" d="M62.7598 30.9271V33.0519H64.6662C65.463 33.0519 65.8038 32.5207 65.8038 31.9887C65.8038 31.4583 65.4534 30.9271 64.6662 30.9271H62.7598ZM67.3886 36.3999H65.899L63.9638 34.1807H62.7598V36.3999H61.5078V29.7519C62.5606 29.7519 63.6134 29.7607 64.6662 29.7607C66.231 29.7703 67.0558 30.8135 67.0558 31.9607C67.0558 32.8719 66.6398 33.7911 65.3774 34.0471L67.3886 36.3143V36.3999ZM76.831 36.3999H71.8614V29.7599H76.831V30.9743H73.1046V32.5007H76.699V33.6671H73.1046V35.1663H76.831V36.3983V36.3999ZM89.0446 36.3999H87.9822L87.1566 34.3135L86.455 32.2175L85.763 34.3311L84.9566 36.3991H83.8942L81.4566 29.7607H82.8598L84.4246 34.5503L86.0382 29.7607H86.8534L88.5134 34.5503L90.031 29.7607H91.4342L89.0446 36.3991V36.3999ZM99.1598 31.1551L97.927 33.9815H100.393L99.1598 31.1551ZM100.896 35.1471H97.4238L96.855 36.3999H95.499L98.4766 29.7607H99.843L102.821 36.3999H101.455L100.896 35.1479V35.1471ZM108.622 30.9271V33.0519H110.528C111.325 33.0519 111.666 32.5207 111.666 31.9887C111.666 31.4583 111.316 30.9271 110.528 30.9271H108.622ZM113.25 36.3999H111.761L109.826 34.1807H108.622V36.3999H107.37V29.7519C108.423 29.7519 109.476 29.7607 110.528 29.7607C112.093 29.7703 112.918 30.8135 112.918 31.9607C112.918 32.8719 112.501 33.7911 111.239 34.0471L113.25 36.3143V36.3999ZM118.9 35.1951H120.265C121.773 35.1951 122.371 34.0951 122.343 33.0135C122.313 31.9799 121.707 30.9455 120.265 30.9455H118.9V35.1951ZM123.585 33.0231C123.613 34.7015 122.589 36.3991 120.265 36.3991H117.657V29.7607H120.265C122.541 29.7607 123.557 31.3823 123.585 33.0231ZM132.486 31.3631C132.26 30.9839 131.633 30.6231 130.913 30.6231C129.983 30.6231 129.537 31.0127 129.537 31.5055C129.537 32.0847 130.221 32.2455 131.017 32.3407C132.401 32.5111 133.692 32.8719 133.692 34.4551C133.692 35.9351 132.383 36.5703 130.903 36.5703C129.547 36.5703 128.504 36.1527 128.01 34.9383L129.053 34.3983C129.348 35.1287 130.116 35.4511 130.921 35.4511C131.709 35.4511 132.449 35.1759 132.449 34.4551C132.449 33.8295 131.794 33.5735 130.913 33.4791C129.557 33.3175 128.305 32.9567 128.305 31.4671C128.305 30.1023 129.652 29.5423 130.875 29.5327C131.909 29.5327 132.98 29.8279 133.483 30.8511L132.486 31.3631Z" fill="white"/>
<path fill-rule="evenodd" clip-rule="evenodd" d="M23.4661 34.6317C22.8061 36.4021 21.6693 37.9565 20.2333 39.1837C18.5309 40.6389 15.7525 42.3405 12.1413 42.2397C9.52854 42.159 7.03085 41.1462 5.09971 39.3845C3.95011 38.3381 2.77971 36.8621 2.20131 34.9005C2.20131 34.9005 -0.0866905 29.7381 3.55091 24.9277C3.55091 24.9277 8.06771 18.4157 8.12691 16.2445C8.12691 16.2445 8.30291 14.1917 10.1797 12.8421C10.1797 12.8421 12.4677 11.1405 15.2253 12.8421C15.2253 12.8421 16.7501 13.4877 17.4541 16.3621C17.4541 16.3621 17.8653 18.8261 19.9773 21.4661L21.8541 24.3405C21.8541 24.3405 25.6269 28.8325 23.4661 34.6325V34.6317ZM23.2037 23.5781C21.4741 21.4397 20.3685 19.4541 19.7149 18.0709C19.2941 17.1821 19.0333 16.2333 18.8309 15.2709C18.3501 12.9773 16.1053 11.4341 16.1053 11.4341C12.5853 9.67408 9.65171 11.4341 9.65171 11.4341C6.71891 12.7837 6.24931 17.1245 6.24931 17.1245C5.48771 19.8525 2.14291 24.2821 2.14291 24.2821C-3.84109 34.1965 4.60691 40.9429 4.60691 40.9429C10.7669 45.6949 17.1613 42.7029 17.1613 42.7029C23.1453 40.3565 24.6117 35.7221 24.6117 35.7221C27.3101 28.5645 23.2037 23.5781 23.2037 23.5781Z" fill="white"/>
<path fill-rule="evenodd" clip-rule="evenodd" d="M12.6731 24.5884C10.8872 24.5884 9.17447 25.2978 7.91168 26.5606C6.64888 27.8234 5.93945 29.5361 5.93945 31.322C5.93945 33.1078 6.64888 34.8206 7.91168 36.0834C9.17447 37.3461 10.8872 38.0556 12.6731 38.0556C14.4589 38.0556 16.1716 37.3461 17.4344 36.0834C18.6972 34.8206 19.4067 33.1078 19.4067 31.322C19.4067 29.5361 18.6972 27.8234 17.4344 26.5606C16.1716 25.2978 14.4589 24.5884 12.6731 24.5884Z" fill="white"/>
<mask id="mask0_530:673" style="mask-type:alpha" maskUnits="userSpaceOnUse" x="3" y="2" width="10" height="9">
<path d="M3.84375 2.3999H12.5822V10.2479H3.84375V2.3999Z" fill="white"/>
</mask>
<g mask="url(#mask0_530:673)">
<path fill-rule="evenodd" clip-rule="evenodd" d="M3.84375 2.3999C3.84375 2.3999 5.55975 3.8959 6.35175 6.7551C6.35175 6.7551 8.06775 11.5951 11.7637 9.8799C11.7637 9.8799 10.0917 6.6679 8.15575 5.3479C8.15575 5.3479 10.2238 5.7879 12.2478 9.7039C12.2478 9.7039 13.9197 7.6799 9.78375 4.2039C9.78375 4.2039 7.45175 2.6199 3.84375 2.3999Z" fill="white"/>
</g>
</g>
<defs>
<clipPath id="clip0_530:673">
<rect width="160" height="48" fill="white"/>
</clipPath>
</defs>
</svg>
