<svg width="77" height="60" viewBox="0 0 77 60" fill="none" xmlns="http://www.w3.org/2000/svg">
<path fill-rule="evenodd" clip-rule="evenodd" d="M60.1063 37.0141H59.6518C58.9956 37.0141 58.4546 37.5237 58.417 38.1756C57.8105 48.7006 49.0197 57.0778 38.3003 57.0778C27.5812 57.0778 18.79 48.7006 18.1838 38.1756C18.1463 37.5237 17.6049 37.0141 16.949 37.0141H16.4945C15.7843 37.0141 15.2122 37.6074 15.2519 38.3134C15.9306 50.3859 26.0095 60 38.3003 60C50.5913 60 60.6699 50.3859 61.3486 38.3134C61.3883 37.6074 60.8165 37.0141 60.1063 37.0141ZM65.0673 19.7439C65.0673 18.9473 65.5079 18.509 66.3082 18.509H66.9719C67.6481 18.509 68.0851 18.7497 68.467 19.3365L73.7441 27.3366V19.7439C73.7441 18.9473 74.1843 18.509 74.9846 18.509H75.4434C76.2438 18.509 76.684 18.9473 76.684 19.7439V30.7025C76.684 31.4994 76.2438 31.9377 75.4434 31.9377H74.8044C74.1285 31.9377 73.6737 31.66 73.3093 31.1106L68.0136 23.0788V30.7029C68.0136 31.4994 67.5734 31.9377 66.7731 31.9377H66.3082C65.5079 31.9377 65.0673 31.4994 65.0673 30.7025V19.7439ZM56.1971 20.973C54.0593 20.973 52.6919 22.5262 52.6919 25.2362C52.6919 28.0196 54.0218 29.5293 56.172 29.5293C58.2915 29.5293 59.6586 28.0196 59.6586 25.2362C59.6586 22.5383 58.279 20.973 56.1971 20.973ZM56.2092 18.3823C59.5435 18.3823 62.5988 20.4564 62.5988 25.2419C62.5988 30.1203 59.5621 32.1108 56.172 32.1108C52.782 32.1108 49.7953 30.1203 49.7953 25.2419C49.7953 20.4564 52.8192 18.3823 56.2092 18.3823ZM44.3609 19.7446C44.3609 18.9477 44.8011 18.509 45.6017 18.509H46.0666C46.8669 18.509 47.3071 18.9477 47.3071 19.7446V30.7029C47.3071 31.4994 46.8669 31.9377 46.0666 31.9377H45.6017C44.8011 31.9377 44.3609 31.4994 44.3609 30.7029V19.7446ZM36.2952 21.1218H34.2436C33.4437 21.1218 33.0028 20.6828 33.0028 19.8863V19.7446C33.0028 18.9477 33.4437 18.509 34.2436 18.509H41.2683C42.0686 18.509 42.5096 18.9477 42.5096 19.7446V19.8863C42.5096 20.6828 42.0686 21.1218 41.2683 21.1218H39.2354V30.7029C39.2354 31.4994 38.7948 31.9377 37.9949 31.9377H37.5357C36.7358 31.9377 36.2952 31.4994 36.2952 30.7029V21.1218ZM27.2043 21.7022L25.0934 27.4434H29.3266L27.2043 21.7022ZM32.0247 31.9377C31.3113 31.9377 30.8575 31.6087 30.6108 30.9332L30.1266 29.6058H24.2988L23.8207 30.9347C23.5786 31.6073 23.1166 31.9377 22.4035 31.9377H21.9068C20.9949 31.9377 20.5915 31.3548 20.9273 30.5138L25.3308 19.4886C25.5979 18.8202 26.0571 18.509 26.7641 18.509H27.6448C28.3522 18.509 28.8106 18.8206 29.0785 19.4886L33.5005 30.5113C33.8388 31.3538 33.4387 31.9377 32.5397 31.9377H32.0247ZM15.2129 21.1218H13.1613C12.3614 21.1218 11.9205 20.6828 11.9205 19.8863V19.7446C11.9205 18.9477 12.3614 18.509 13.1613 18.509H20.1864C20.9863 18.509 21.4273 18.9477 21.4273 19.7446V19.8863C21.4273 20.6828 20.9863 21.1218 20.1864 21.1218H18.1531V30.7029C18.1531 31.4994 17.7125 31.9377 16.9126 31.9377H16.4538C15.6534 31.9377 15.2129 31.4994 15.2129 30.7029V21.1218ZM0.844517 28.0901L1.09519 28.0089C1.75318 27.7956 2.11793 28.0035 2.65218 28.5651C3.39206 29.3416 4.3397 29.7821 5.46757 29.7821C6.89117 29.7821 7.74012 29.1853 7.74012 28.1855C7.74012 25.5737 0.341374 27.2825 0.341374 22.2427C0.341374 19.9169 2.32677 18.3449 5.18042 18.3449C7.3042 18.3449 9.2331 19.1884 10.0692 20.5361C10.5591 21.3266 10.3395 21.8881 9.47984 22.0921L9.17016 22.1658C8.36127 22.3578 8.05981 22.0234 7.50017 21.5338C6.85828 20.9727 6.20816 20.6817 5.30665 20.6817C4.01822 20.6817 3.22005 21.2529 3.22005 22.173C3.22005 25.019 10.686 23.0375 10.686 28.099C10.686 30.5134 8.55652 32.0983 5.49117 32.0983C3.19574 32.0983 1.1331 31.0942 0.216929 29.6073C-0.22578 28.8884 0.0216798 28.3568 0.844517 28.0901ZM52.2331 2.61281H50.1819C49.3816 2.61281 48.941 2.17414 48.941 1.37726V1.23519C48.941 0.438674 49.3816 0 50.1819 0H57.2066C58.0069 0 58.4474 0.438674 58.4474 1.23519V1.37726C58.4474 2.17414 58.0069 2.61281 57.2066 2.61281H55.1736V12.1938C55.1736 12.9904 54.733 13.429 53.9331 13.429H53.4739C52.674 13.429 52.2331 12.9904 52.2331 12.1938V2.61281ZM38.1672 1.23519C38.1672 0.438674 38.6074 0 39.4074 0H45.8492C46.6484 0 47.0893 0.438674 47.0893 1.23519V1.37726C47.0893 2.17414 46.6484 2.61281 45.8492 2.61281H41.1071V5.50977H45.5134C46.3133 5.50977 46.7543 5.91746 46.7543 6.64669V6.6652C46.7543 7.40012 46.3133 7.79571 45.5134 7.79571H41.1071V10.823H45.8492C46.6484 10.823 47.0893 11.2613 47.0893 12.0578V12.1938C47.0893 12.9904 46.6484 13.429 45.8492 13.429H39.4074C38.6074 13.429 38.1672 12.9904 38.1672 12.1938V1.23519ZM32.1352 1.23519C32.1352 0.438674 32.5754 0 33.3757 0H33.8406C34.6413 0 35.0815 0.438674 35.0815 1.23519V12.1938C35.0815 12.9904 34.6413 13.429 33.8406 13.429H33.3757C32.5754 13.429 32.1352 12.9904 32.1352 12.1938V1.23519ZM22.1779 2.58148H21.1762V10.823H22.2025C25.6012 10.823 26.6954 9.49272 26.6954 6.69582C26.6954 3.9178 25.6012 2.58148 22.1779 2.58148ZM18.2364 1.23519C18.2364 0.438674 18.6766 0 19.4765 0H22.0849C27.5429 0 29.6667 2.30588 29.6667 6.72075C29.6667 11.0737 27.5429 13.429 22.0849 13.429H19.4765C18.6766 13.429 18.2364 12.9904 18.2364 12.1938V1.23519Z" fill="white"/>
</svg>
