<svg width="93" height="40" viewBox="0 0 93 40" fill="none" xmlns="http://www.w3.org/2000/svg">
<path d="M51.2747 9.49656V19.6632C51.2747 29.8683 51.2238 31.1985 50.8064 32.6672C50.0593 35.3013 48.0206 37.7197 45.5136 38.9474C43.9809 39.6945 43.146 39.8971 41.3222 39.9726C40.0305 40.0365 39.6385 39.998 38.6634 39.7569C38.0434 39.606 37.2324 39.3395 36.8658 39.1754C36.017 38.808 34.6114 37.8707 34.1431 37.377L33.7889 37.0096L35.6627 35.1488C36.6879 34.136 37.5497 33.3003 37.5621 33.3003C37.5875 33.3003 37.8655 33.4898 38.1952 33.7309C39.0686 34.3509 39.905 34.6043 41.0187 34.6043C42.918 34.592 44.3868 33.6801 45.2602 31.9833L45.767 30.9828L45.8047 20.2462L45.8432 9.49656H51.2747V9.49656ZM28.104 9.49656V29.8814L25.4191 29.856L22.7226 29.8175L22.6841 19.6509L22.6595 9.49656H28.104ZM65.3293 9.68603C68.9631 10.4462 72.0647 13.3961 73.0783 17.043C73.344 17.9919 73.3563 18.3338 73.4071 23.9555L73.4449 29.8814H68.0003L67.9626 24.1458L67.9249 18.4232L67.5066 17.5744C66.6587 15.8399 65.1514 14.9026 63.1766 14.8903C62.2269 14.8903 61.9989 14.9288 61.2773 15.27C59.7962 15.9662 58.9351 16.9921 58.5423 18.4863C57.9854 20.6768 59.0491 22.9558 61.1255 24.0063C61.7841 24.3483 61.9612 24.3737 63.1766 24.3737C64.3542 24.3737 64.5945 24.3352 65.2276 24.0318C65.6327 23.8423 66.2404 23.4241 66.5955 23.0952L67.2278 22.4998V28.9695L66.5701 29.2483C66.2027 29.4001 65.481 29.6026 64.9488 29.7043C60.4039 30.5145 55.9213 28.1593 53.9457 23.9309C53.2117 22.3481 53.0092 21.2213 53.0723 19.208C53.1232 17.8147 53.1863 17.3718 53.4775 16.5231C54.0097 14.9788 54.7568 13.7635 55.8959 12.5982C57.4278 11.0408 58.7826 10.256 60.8344 9.73686C61.9612 9.45805 64.1131 9.43263 65.3293 9.68603V9.68603ZM80.3967 9.49656V29.8814H75.0785V9.49656H80.3967ZM36.1949 9.49656L36.2327 15.2191L36.2704 20.9548L36.6378 21.715C37.1422 22.7003 37.9438 23.502 38.9292 24.0063C39.6254 24.336 39.8033 24.3737 41.0187 24.3737C42.2218 24.3737 42.4243 24.3352 43.0698 24.0194C43.4626 23.8292 44.0571 23.4241 44.3991 23.1198L45.0076 22.5761L44.9691 25.7793L44.9306 28.9949L44.5894 29.1721C43.3231 29.8306 40.1954 30.0332 38.4863 29.578C35.625 28.8178 33.1049 26.7544 31.8395 24.1203C30.8513 22.0562 30.8513 22.0816 30.8005 15.4094L30.7496 9.49656H36.1949V9.49656ZM20.392 0L20.3535 10.7874L20.3157 21.5879L19.8983 22.791C19.3538 24.336 18.6698 25.5005 17.6185 26.615C16.3141 28.0044 14.6549 29.0111 12.8202 29.5264C11.4146 29.9192 8.95839 29.9192 7.55277 29.5264C4.99571 28.8055 2.7036 27.0579 1.38655 24.8297C0.108023 22.677 -0.322518 19.8665 0.246659 17.3973C1.07077 13.8012 3.71641 10.99 7.33789 9.85085C8.17355 9.59746 8.54094 9.55972 10.2492 9.55972C11.9722 9.57204 12.3134 9.61055 13.0358 9.86317C13.491 10.0157 13.9346 10.2051 14.0232 10.2814C14.1241 10.3715 14.1657 11.0316 14.1734 12.84L14.1749 16.7387L13.5796 16.2073C11.4785 14.3588 8.57868 14.4212 6.70478 16.3459C4.43808 18.6889 5.2106 22.6385 8.19897 24.0325C8.83207 24.336 9.0847 24.3737 10.1861 24.3737C11.2882 24.3737 11.5416 24.3352 12.1747 24.0318C12.8833 23.6975 13.502 23.1992 13.9797 22.5783C14.4575 21.9574 14.7805 21.2317 14.922 20.4611C15.0052 19.9867 15.0545 16.8296 15.0607 11.0431V0H20.392ZM85.5239 9.54662C86.9033 9.58513 87.4864 9.64829 88.1826 9.87627C88.6763 10.028 89.4989 10.3823 90.0188 10.6611C90.9931 11.1802 92.4241 12.2562 92.4241 12.4711C92.4241 12.6112 88.8666 16.2065 88.7272 16.2065C88.6763 16.2065 88.3721 16.0171 88.0686 15.7768C87.0936 15.0297 85.7265 14.7 84.5234 14.928C83.422 15.1306 82.5224 15.5865 81.7376 16.359L81.0414 17.0299V10.4077L81.6614 10.142C82.8775 9.62287 83.6492 9.49656 85.5239 9.54662V9.54662ZM28.104 0V5.06483L25.4191 5.03942L22.7226 5.00091L22.6841 2.49468L22.6602 0H28.1048H28.104Z" fill="white"/>
</svg>
