<svg width="183" height="16" viewBox="0 0 183 16" fill="none" xmlns="http://www.w3.org/2000/svg">
<path fill-rule="evenodd" clip-rule="evenodd" d="M147.4 13.9618C148.655 12.5962 149.273 10.5987 149.273 7.9898C149.273 5.38089 148.655 3.40382 147.4 2.03821C146.145 0.672611 144.313 0 141.902 0C139.492 0 137.64 0.672611 136.385 2.03821C135.13 3.40382 134.493 5.38089 134.493 7.96942C134.493 10.5783 135.13 12.5758 136.405 13.9414C137.68 15.307 139.492 16 141.883 16C144.313 16 146.145 15.3274 147.4 13.9618ZM141.902 12.4943C139.851 12.4943 138.835 10.986 138.835 7.9898C138.835 4.95286 139.851 3.44458 141.922 3.4242C142.938 3.4242 143.695 3.81146 144.213 4.54522C144.711 5.29936 144.97 6.44076 144.97 7.9898C144.97 9.51846 144.711 10.6599 144.213 11.3936C143.715 12.1274 142.938 12.4943 141.902 12.4943ZM4.04355 15.7758H0V0.224197H8.98346V3.58725H4.04355V6.56305H8.605V9.9261H4.04355V15.7758ZM26.4922 0.224197V9.5796C26.4922 11.6178 25.9345 13.1872 24.7991 14.3083C23.6637 15.4293 22.0503 15.9796 19.9389 15.9796C17.8673 15.9796 16.2738 15.4293 15.1583 14.349C14.0429 13.2688 13.4851 11.6993 13.4851 9.66113V0.224197H17.6084V9.3554C17.6084 10.456 17.8076 11.2509 18.2059 11.7401C18.6043 12.2293 19.2019 12.4942 19.9787 12.4942C20.8153 12.4942 21.4328 12.2497 21.8113 11.7605C22.1897 11.2713 22.369 10.456 22.369 9.33502V0.224197H26.4922ZM34.4 15.7758H38.4834V3.66878H42.1883V0.224197H30.6752V3.66878H34.4V15.7758ZM59.3982 0.224197V9.5796C59.3982 11.6178 58.8404 13.1872 57.7051 14.3083C56.5697 15.4293 54.9563 15.9796 52.8448 15.9796C50.7733 15.9796 49.1798 15.4293 48.0643 14.349C46.9488 13.2688 46.3911 11.6993 46.3911 9.66113V0.224197H50.5143V9.3554C50.5143 10.456 50.7135 11.2509 51.1119 11.7401C51.5103 12.2293 52.1078 12.4942 52.8847 12.4942C53.7213 12.4942 54.3388 12.2497 54.7172 11.7605C55.0957 11.2713 55.275 10.456 55.275 9.33502V0.224197H59.3982ZM68.7999 15.7758V10.1095V10.0892H69.8357L73.0625 15.7554H77.7235L73.3016 8.98852C75.0146 8.01018 75.8711 6.60381 75.8711 4.81018C75.8711 1.75286 73.7995 0.224197 69.6763 0.224197H64.6966V15.7758H68.7999ZM69.5767 6.95031H68.7999V3.40381H69.6166C71.0308 3.40381 71.728 3.93375 71.728 5.014C71.728 6.29808 71.0109 6.95031 69.5767 6.95031ZM90.2327 15.7758H81.2095V0.224197H90.2327V3.58725H85.3127V6.03311H89.8741V9.39617H85.3127V12.3312H90.2327V15.7758ZM112.522 9.2127C113.518 8.27512 114.016 6.9299 114.016 5.19742C114.016 3.60761 113.538 2.38468 112.582 1.52863C111.626 0.672582 110.172 0.244557 108.259 0.244557H103.001V15.7961H107.104V10.6395H108.259C110.092 10.6395 111.526 10.1503 112.522 9.2127ZM107.861 7.21525H107.104V3.64838H108.16C109.295 3.64838 109.873 4.17831 109.873 5.2178C109.873 5.84965 109.694 6.33882 109.335 6.68532C108.976 7.03181 108.478 7.21525 107.861 7.21525ZM122.661 10.1299V15.7961H118.557V0.244557H123.537C127.66 0.244557 129.732 1.77322 129.732 4.83054C129.732 6.62417 128.875 8.03054 127.162 9.00888L131.584 15.7758H126.923L123.697 10.1299H122.661ZM122.661 6.97067H123.438C124.872 6.97067 125.589 6.31844 125.589 5.03436C125.589 3.95411 124.892 3.42417 123.477 3.42417H122.661V6.97067ZM168.355 7.9898C168.355 10.5987 167.737 12.5962 166.482 13.9618C165.227 15.3274 163.395 16 160.965 16C158.575 16 156.762 15.307 155.487 13.9414C154.212 12.5758 153.575 10.5987 153.575 7.96942C153.575 5.38089 154.212 3.40382 155.467 2.03821C156.722 0.672611 158.575 0 160.985 0C163.395 0 165.227 0.672611 166.482 2.03821C167.717 3.38344 168.355 5.38089 168.355 7.9898ZM157.897 7.9898C157.897 10.986 158.913 12.4943 160.965 12.4943C162.001 12.4943 162.777 12.1274 163.275 11.3936C163.773 10.6599 164.032 9.51846 164.032 7.9898C164.032 6.44076 163.773 5.29936 163.275 4.54522C162.758 3.81146 162.001 3.4242 160.985 3.4242C158.933 3.44458 157.897 4.95286 157.897 7.9898ZM173.195 15.7961H177.239V9.94646H181.8V6.58341H177.239V3.60761H182.178V0.244557H173.195V15.7961Z" fill="white"/>
</svg>
