<svg width="152" height="32" viewBox="0 0 152 32" fill="none" xmlns="http://www.w3.org/2000/svg">
<path d="M32 32H21.333L0 10.667V0H10.667L32 21.333V32Z" fill="white"/>
<path d="M10.667 21.333H0V32H10.667V21.333Z" fill="white"/>
<path d="M31.999 0H21.332V10.667H31.999V0Z" fill="white"/>
<path d="M56.2858 7.99951V23.9595H53.2562L45.6925 13.413V23.9595H42.666V7.99951H45.6925L53.2562 18.5264V7.99951H56.2858Z" fill="white"/>
<path d="M64.0402 10.6595V14.6526H70.9207V17.1528H64.0402V21.3058H71.4274V23.9658H61.0137V7.99951H71.4274V10.6595H64.0402Z" fill="white"/>
<path d="M77.2728 22.399C76.6478 21.7223 76.1652 20.9267 75.8538 20.0597C75.5424 19.1927 75.4084 18.2719 75.46 17.3521V7.99951H78.4865V17.2856C78.3887 18.4541 78.7416 19.6157 79.4728 20.5323C79.8411 20.8923 80.281 21.1708 80.764 21.3496C81.247 21.5285 81.7622 21.6038 82.2761 21.5705C82.7926 21.6048 83.3103 21.5273 83.7941 21.3432C84.2779 21.1592 84.7163 20.8731 85.0794 20.5042C85.7929 19.5898 86.1397 18.4422 86.0522 17.2856V7.99951H89.0787V17.3594C89.1297 18.2791 88.9955 19.1997 88.6841 20.0667C88.3727 20.9336 87.8905 21.7292 87.266 22.4063C85.8703 23.591 84.0989 24.2409 82.2682 24.2397C80.4376 24.2386 78.6669 23.5865 77.2728 22.4001V22.399Z" fill="white"/>
<path d="M97.0403 10.7727H92.5V7.99951H104.606V10.7727H100.066V23.9585H97.0392L97.0403 10.7727Z" fill="white"/>
<path d="M117.378 23.9596L114.125 17.8796H111.284V23.9596H108.252V7.99958H114.005C115.645 7.8775 117.278 8.31445 118.639 9.23926C119.158 9.67761 119.567 10.2316 119.833 10.8567C120.1 11.4819 120.216 12.1608 120.172 12.8389C120.202 13.8408 119.94 14.8298 119.418 15.6858C118.878 16.4937 118.089 17.1043 117.172 17.4259L120.702 23.9596H117.378ZM111.284 15.2258H114.037C114.818 15.2852 115.598 15.1013 116.27 14.6994C116.526 14.4822 116.725 14.2061 116.851 13.8948C116.976 13.5835 117.024 13.2464 116.99 12.9126C117.023 12.5892 116.975 12.2626 116.851 11.9622C116.726 11.6619 116.529 11.3973 116.277 11.1922C115.585 10.8027 114.794 10.6264 114.003 10.6855H111.276V15.2258H111.284Z" fill="white"/>
<path d="M133.778 20.3392H126.965L125.632 23.9658H122.605L128.666 7.99951H132.196L138.249 23.9595H135.109L133.778 20.3392ZM132.838 17.7664L130.382 10.9793L127.902 17.7664H132.838Z" fill="white"/>
<path d="M141.279 7.99951H144.306V21.2995H151.025V23.9595H141.279V7.99951Z" fill="white"/>
</svg>
