<svg width="117" height="24" viewBox="0 0 117 24" fill="none" xmlns="http://www.w3.org/2000/svg">
<path d="M18.6511 5.04932H11.5336V23.5212H7.11754V5.04932H0V0.862793H18.6511V5.04932V5.04932Z" fill="white"/>
<path d="M28.3936 7.79811H32.8419L36.2094 17.9284L39.1014 7.79811H43.2954L38.4024 23.5205H34.1761L30.5221 12.7826L26.9319 23.5205H22.6418L17.6543 7.79736H22.1018L24.9938 17.8962L28.3936 7.79736V7.79811Z" fill="white"/>
<path d="M50.1598 23.5201H45.9343V7.79855H50.1598V23.5201ZM45.4258 2.65277C45.4258 1.92826 45.68 1.31026 46.1885 0.798754C46.6963 0.266251 47.3105 0 48.0313 0C48.7513 0 49.3663 0.255001 49.8741 0.767254C50.3826 1.27801 50.6368 1.90726 50.6368 2.65277C50.6368 3.35552 50.3818 3.96302 49.8741 4.47378C49.6359 4.72121 49.3495 4.91701 49.0325 5.049C48.7154 5.181 48.3747 5.24636 48.0313 5.24103C47.3113 5.24103 46.6963 4.98603 46.1885 4.47378C45.68 3.96302 45.4258 3.35552 45.4258 2.65277Z" fill="white"/>
<path d="M69.5857 0.383074V20.6774C69.5857 21.7214 69.6277 22.6695 69.7124 23.5215H65.6774C65.5716 22.989 65.5184 22.3815 65.5184 21.6997C65.1584 22.3597 64.5861 22.8922 63.8024 23.2972C63.0404 23.7022 62.1501 23.9047 61.1339 23.9047C58.9093 23.9047 57.0771 23.127 55.6363 21.5722C54.2173 19.9957 53.5078 18.0142 53.5078 15.6277C53.5078 13.3057 54.2068 11.3564 55.6048 9.77988C57.0238 8.20262 58.8246 7.41436 61.0064 7.41436C63.2519 7.41436 64.7241 8.06462 65.4231 9.36438V0.382324H69.5857V0.383074ZM57.7656 15.6269C57.7656 17.0122 58.1256 18.1094 58.8456 18.9187C59.5663 19.7069 60.4979 20.1014 61.6416 20.1014C62.7644 20.1014 63.6861 19.6964 64.4061 18.8864C65.1261 18.0772 65.4869 16.9799 65.4869 15.5954C65.4869 14.2319 65.1261 13.1661 64.4061 12.3996C63.6861 11.6114 62.7644 11.2169 61.6416 11.2169C60.5196 11.2169 59.5873 11.6114 58.8456 12.3996C58.1256 13.1871 57.7656 14.2634 57.7656 15.6269Z" fill="white"/>
<path d="M89.0712 0.383074V20.6774C89.0712 21.7214 89.114 22.6695 89.1987 23.5215H85.163C85.0572 22.989 85.0047 22.3815 85.0047 21.6997C84.644 22.3597 84.0725 22.8922 83.2887 23.2972C82.5259 23.7022 81.6364 23.9047 80.6194 23.9047C78.3957 23.9047 76.5634 23.127 75.1227 21.5722C73.7036 19.9957 72.9941 18.0142 72.9941 15.6277C72.9941 13.3057 73.6931 11.3564 75.0912 9.77988C76.5102 8.20262 78.3109 7.41436 80.4927 7.41436C82.7374 7.41436 84.2097 8.06462 84.9087 9.36438V0.382324H89.0712V0.383074ZM77.2519 15.6269C77.2519 17.0122 77.6119 18.1094 78.3319 18.9187C79.0519 19.7069 79.9842 20.1014 81.1279 20.1014C82.2507 20.1014 83.1717 19.6964 83.8925 18.8864C84.6125 18.0772 84.9725 16.9799 84.9725 15.5954C84.9725 14.2319 84.6125 13.1661 83.8925 12.3996C83.1717 11.6114 82.2507 11.2169 81.1279 11.2169C80.0052 11.2169 79.0729 11.6114 78.3319 12.3996C77.6119 13.1871 77.2519 14.2634 77.2519 15.6269Z" fill="white"/>
<path d="M97.8818 23.5204H93.6562V0.384277H97.8818V23.5219V23.5204Z" fill="white"/>
<path d="M105.488 13.8696H112.478C112.436 12.9959 112.118 12.2609 111.525 11.6646C110.954 11.0676 110.106 10.7691 108.983 10.7691C107.966 10.7691 107.14 11.0894 106.505 11.7284C105.869 12.3674 105.53 13.0814 105.488 13.8696ZM112.892 17.9602L116.418 19.0147C115.995 20.4629 115.158 21.6562 113.909 22.5937C112.68 23.5312 111.144 24 109.301 24C107.056 24 105.149 23.244 103.582 21.7312C102.014 20.1967 101.23 18.1514 101.23 15.5954C101.23 13.1661 101.993 11.1854 103.518 9.65087C105.043 8.09611 106.844 7.31836 108.92 7.31836C111.335 7.31836 113.22 8.04286 114.575 9.49112C115.952 10.9401 116.641 12.9321 116.641 15.4672C116.641 15.6374 116.63 15.8294 116.609 16.0424V16.5539L116.577 16.7774H105.393C105.435 17.8004 105.838 18.6524 106.6 19.3342C107.362 20.0159 108.274 20.3564 109.333 20.3564C111.134 20.3564 112.319 19.5577 112.892 17.9602V17.9602Z" fill="white"/>
</svg>
