<svg width="180" height="32" viewBox="0 0 180 32" fill="none" xmlns="http://www.w3.org/2000/svg">
<path fill-rule="evenodd" clip-rule="evenodd" d="M2.17037 2.88395C4.45397 1.31734 7.4512 1.88701 9.02119 4.16571L21.5809 22.68C23.1509 24.9587 22.5801 27.9495 20.2965 29.516C18.0129 31.0827 15.0156 30.5129 13.4456 28.2343L0.885849 9.72C-0.684128 7.44131 -0.113227 4.45053 2.17037 2.88395ZM22.0093 11.1441C22.0093 8.43819 24.2929 6.15951 27.0047 6.15951C29.7165 6.15951 32.0001 8.43819 32.0001 11.1441C32.0001 13.8501 29.7165 16.1288 27.0047 16.1288C24.2929 16.1288 22.0093 13.8501 22.0093 11.1441Z" fill="white"/>
<path fill-rule="evenodd" clip-rule="evenodd" d="M138.952 5.2002H143.146L143.002 9.11325H146.474V12.8814H143.002V19.8379C143.002 21.1422 143.87 21.4321 144.593 21.4321C145.606 21.4321 146.185 20.9973 146.185 20.9973V24.4755C146.185 24.4755 145.461 25.2002 143.292 25.2002C138.929 25.2002 138.948 21.3595 138.952 20.4838V20.4175V5.2002ZM59.1028 16.6494C59.1028 12.1567 62.7192 8.3886 67.3481 8.3886C71.9771 8.3886 75.5933 12.0118 75.5933 16.6494V18.2437H63.4424L63.5871 18.5335C64.3104 20.1277 65.9016 21.2871 67.782 21.2871C69.2285 21.2871 70.3859 20.7074 71.2537 19.693L74.2915 21.2871C72.7003 23.461 70.2412 24.9103 67.3481 24.9103C62.8639 24.9103 59.1028 21.2871 59.1028 16.6494ZM67.4928 12.1567C65.6123 12.1567 64.0211 13.3161 63.5871 15.0553H71.3984C70.8197 13.461 69.3732 12.1567 67.4928 12.1567ZM118.266 8.3886C113.637 8.3886 110.021 12.1567 110.021 16.6494C110.021 21.2871 113.782 24.9103 118.266 24.9103C122.895 24.9103 126.512 21.1422 126.512 16.6494C126.512 12.0118 122.895 8.3886 118.266 8.3886ZM118.266 20.7074C116.097 20.7074 114.216 18.9683 114.216 16.6494C114.216 14.4755 115.952 12.5915 118.266 12.5915C120.436 12.5915 122.317 14.3306 122.317 16.6494C122.317 18.8234 120.436 20.7074 118.266 20.7074ZM86.4421 8.5335C84.4169 8.5335 82.8257 9.548 81.8132 11.1422V9.11321H77.6183V24.7654H81.8132V15.4901C81.8132 13.7509 83.2597 12.3016 84.9956 12.3016C86.7315 12.3016 87.8887 13.7509 87.8887 15.4901V15.635V24.6205H92.0836V15.0553V14.1857C92.0836 10.9973 89.6245 8.5335 86.4421 8.5335ZM156.166 8.3886C151.537 8.3886 147.921 12.1567 147.921 16.6494C147.921 21.2871 151.681 24.9103 156.166 24.9103C159.06 24.9103 161.518 23.461 163.109 21.2871L160.072 19.5481C159.204 20.5625 158.046 21.1422 156.6 21.1422C154.72 21.1422 153.128 19.9827 152.405 18.3886L152.26 18.0987H164.412V16.5045C164.412 12.0118 160.794 8.3886 156.166 8.3886ZM152.405 15.0553C152.838 13.3161 154.43 12.1567 156.31 12.1567C158.192 12.1567 159.637 13.461 160.216 15.0553H152.405ZM97.5808 16.6494C97.5808 19.1133 99.606 20.9973 101.92 20.9973C103.367 20.9973 104.813 20.1277 105.537 18.8234L109.008 20.8523C107.562 23.3161 104.958 24.9103 101.92 24.9103C97.4361 24.9103 93.6752 21.1422 93.6752 16.6494C93.6752 12.1567 97.4361 8.3886 101.92 8.3886C104.669 8.3886 107.273 9.83788 108.719 12.0118L105.392 14.1857C104.669 13.0263 103.367 12.3016 101.92 12.3016C99.4613 12.3016 97.5808 14.1857 97.5808 16.6494ZM179.6 9.11326H175.26L171.644 14.0407L168.028 9.11326H163.688L169.474 16.9394L163.688 24.6205H168.028L171.644 19.8379L175.26 24.6205H179.6L173.813 16.9394L179.6 9.11326ZM137.65 13.3161V8.9683C135.625 8.9683 133.745 10.1277 132.876 11.8668V9.11322H128.681V24.7654H132.876V18.2437C132.876 15.3451 135.046 13.3161 137.65 13.3161ZM54.1845 9.11326H58.958L52.4487 24.4755V24.6205H48.1091V24.4755L41.5996 9.11326H46.3732L50.2788 18.9683L54.1845 9.11326Z" fill="white"/>
</svg>
