<svg xmlns="http://www.w3.org/2000/svg" width="60" height="60" fill="none" viewBox="0 0 60 60">
  <g filter="url(#filter0_bii)">
    <path stroke="#C6C9D0" stroke-linecap="round" stroke-opacity=".5" stroke-width="3.17" d="M49.665 23a.415.415 0 00-.415-.415H34a.415.415 0 00-.415.415v9.5c0 1.057.858 1.915 1.915 1.915h12.25a1.915 1.915 0 001.915-1.915V23z"/>
  </g>
  <path fill="#000" d="M51.25 14a3 3 0 01-3 3H35a3 3 0 01-3-3V5.5A3.5 3.5 0 0135.5 2h12.25a3.5 3.5 0 013.5 3.5V14z"/>
  <g filter="url(#filter1_bii)">
    <path stroke="#C6C9D0" stroke-linecap="round" stroke-opacity=".5" stroke-width="3.17" d="M24.75 17.915H12.5A1.915 1.915 0 0110.585 16V4c0-.23.186-.415.415-.415h15.25c.23 0 .415.186.415.415v12a1.915 1.915 0 01-1.915 1.915z"/>
  </g>
  <g filter="url(#filter2_bii)">
    <path stroke="#C6C9D0" stroke-linecap="round" stroke-opacity=".5" stroke-width="3.17" d="M26.665 37c0 .229-.186.415-.415.415H11a.415.415 0 01-.415-.415v-9.5c0-1.057.858-1.915 1.915-1.915h12.25c1.057 0 1.915.858 1.915 1.915V37z"/>
  </g>
  <path fill="#000" d="M28.25 55a3 3 0 01-3 3H12a3 3 0 01-3-3v-8.5a3.5 3.5 0 013.5-3.5h12.25a3.5 3.5 0 013.5 3.5V55z"/>
  <g filter="url(#filter3_bii)">
    <path stroke="#C6C9D0" stroke-linecap="round" stroke-opacity=".5" stroke-width="3.17" d="M49.415 56c0 .23-.186.415-.415.415H33.75a.415.415 0 01-.415-.415V44c0-1.057.858-1.915 1.915-1.915H47.5c1.057 0 1.915.858 1.915 1.915v12z"/>
  </g>
  <g filter="url(#filter4_bii)">
    <mask id="a" fill="#fff">
      <rect width="56" height="56" x="2" y="2" rx="2"/>
    </mask>
    <rect width="56" height="56" x="2" y="2" stroke="#C6C9D0" stroke-linecap="round" stroke-opacity=".5" stroke-width="6.341" mask="url(#a)" rx="2"/>
  </g>
  <defs>
    <filter id="filter0_bii" width="48.945" height="44.695" x="17.153" y="6.153" color-interpolation-filters="sRGB" filterUnits="userSpaceOnUse">
      <feFlood flood-opacity="0" result="BackgroundImageFix"/>
      <feGaussianBlur in="BackgroundImage" stdDeviation="7.424"/>
      <feComposite in2="SourceAlpha" operator="in" result="effect1_backgroundBlur"/>
      <feBlend in="SourceGraphic" in2="effect1_backgroundBlur" result="shape"/>
      <feColorMatrix in="SourceAlpha" result="hardAlpha" values="0 0 0 0 0 0 0 0 0 0 0 0 0 0 0 0 0 0 127 0"/>
      <feOffset dy=".691"/>
      <feGaussianBlur stdDeviation=".345"/>
      <feComposite in2="hardAlpha" k2="-1" k3="1" operator="arithmetic"/>
      <feColorMatrix values="0 0 0 0 1 0 0 0 0 1 0 0 0 0 1 0 0 0 0.15 0"/>
      <feBlend in2="shape" result="effect2_innerShadow"/>
      <feColorMatrix in="SourceAlpha" result="hardAlpha" values="0 0 0 0 0 0 0 0 0 0 0 0 0 0 0 0 0 0 127 0"/>
      <feOffset/>
      <feGaussianBlur stdDeviation="5.87"/>
      <feComposite in2="hardAlpha" k2="-1" k3="1" operator="arithmetic"/>
      <feColorMatrix values="0 0 0 0 1 0 0 0 0 1 0 0 0 0 1 0 0 0 0.05 0"/>
      <feBlend in2="effect2_innerShadow" result="effect3_innerShadow"/>
    </filter>
    <filter id="filter1_bii" width="48.945" height="47.195" x="-5.847" y="-12.847" color-interpolation-filters="sRGB" filterUnits="userSpaceOnUse">
      <feFlood flood-opacity="0" result="BackgroundImageFix"/>
      <feGaussianBlur in="BackgroundImage" stdDeviation="7.424"/>
      <feComposite in2="SourceAlpha" operator="in" result="effect1_backgroundBlur"/>
      <feBlend in="SourceGraphic" in2="effect1_backgroundBlur" result="shape"/>
      <feColorMatrix in="SourceAlpha" result="hardAlpha" values="0 0 0 0 0 0 0 0 0 0 0 0 0 0 0 0 0 0 127 0"/>
      <feOffset dy=".691"/>
      <feGaussianBlur stdDeviation=".345"/>
      <feComposite in2="hardAlpha" k2="-1" k3="1" operator="arithmetic"/>
      <feColorMatrix values="0 0 0 0 1 0 0 0 0 1 0 0 0 0 1 0 0 0 0.15 0"/>
      <feBlend in2="shape" result="effect2_innerShadow"/>
      <feColorMatrix in="SourceAlpha" result="hardAlpha" values="0 0 0 0 0 0 0 0 0 0 0 0 0 0 0 0 0 0 127 0"/>
      <feOffset/>
      <feGaussianBlur stdDeviation="5.87"/>
      <feComposite in2="hardAlpha" k2="-1" k3="1" operator="arithmetic"/>
      <feColorMatrix values="0 0 0 0 1 0 0 0 0 1 0 0 0 0 1 0 0 0 0.05 0"/>
      <feBlend in2="effect2_innerShadow" result="effect3_innerShadow"/>
    </filter>
    <filter id="filter2_bii" width="48.945" height="44.695" x="-5.847" y="9.153" color-interpolation-filters="sRGB" filterUnits="userSpaceOnUse">
      <feFlood flood-opacity="0" result="BackgroundImageFix"/>
      <feGaussianBlur in="BackgroundImage" stdDeviation="7.424"/>
      <feComposite in2="SourceAlpha" operator="in" result="effect1_backgroundBlur"/>
      <feBlend in="SourceGraphic" in2="effect1_backgroundBlur" result="shape"/>
      <feColorMatrix in="SourceAlpha" result="hardAlpha" values="0 0 0 0 0 0 0 0 0 0 0 0 0 0 0 0 0 0 127 0"/>
      <feOffset dy=".691"/>
      <feGaussianBlur stdDeviation=".345"/>
      <feComposite in2="hardAlpha" k2="-1" k3="1" operator="arithmetic"/>
      <feColorMatrix values="0 0 0 0 1 0 0 0 0 1 0 0 0 0 1 0 0 0 0.15 0"/>
      <feBlend in2="shape" result="effect2_innerShadow"/>
      <feColorMatrix in="SourceAlpha" result="hardAlpha" values="0 0 0 0 0 0 0 0 0 0 0 0 0 0 0 0 0 0 127 0"/>
      <feOffset/>
      <feGaussianBlur stdDeviation="5.87"/>
      <feComposite in2="hardAlpha" k2="-1" k3="1" operator="arithmetic"/>
      <feColorMatrix values="0 0 0 0 1 0 0 0 0 1 0 0 0 0 1 0 0 0 0.05 0"/>
      <feBlend in2="effect2_innerShadow" result="effect3_innerShadow"/>
    </filter>
    <filter id="filter3_bii" width="48.945" height="47.195" x="16.903" y="25.653" color-interpolation-filters="sRGB" filterUnits="userSpaceOnUse">
      <feFlood flood-opacity="0" result="BackgroundImageFix"/>
      <feGaussianBlur in="BackgroundImage" stdDeviation="7.424"/>
      <feComposite in2="SourceAlpha" operator="in" result="effect1_backgroundBlur"/>
      <feBlend in="SourceGraphic" in2="effect1_backgroundBlur" result="shape"/>
      <feColorMatrix in="SourceAlpha" result="hardAlpha" values="0 0 0 0 0 0 0 0 0 0 0 0 0 0 0 0 0 0 127 0"/>
      <feOffset dy=".691"/>
      <feGaussianBlur stdDeviation=".345"/>
      <feComposite in2="hardAlpha" k2="-1" k3="1" operator="arithmetic"/>
      <feColorMatrix values="0 0 0 0 1 0 0 0 0 1 0 0 0 0 1 0 0 0 0.15 0"/>
      <feBlend in2="shape" result="effect2_innerShadow"/>
      <feColorMatrix in="SourceAlpha" result="hardAlpha" values="0 0 0 0 0 0 0 0 0 0 0 0 0 0 0 0 0 0 127 0"/>
      <feOffset/>
      <feGaussianBlur stdDeviation="5.87"/>
      <feComposite in2="hardAlpha" k2="-1" k3="1" operator="arithmetic"/>
      <feColorMatrix values="0 0 0 0 1 0 0 0 0 1 0 0 0 0 1 0 0 0 0.05 0"/>
      <feBlend in2="effect2_innerShadow" result="effect3_innerShadow"/>
    </filter>
    <filter id="filter4_bii" width="85.695" height="85.695" x="-12.847" y="-12.847" color-interpolation-filters="sRGB" filterUnits="userSpaceOnUse">
      <feFlood flood-opacity="0" result="BackgroundImageFix"/>
      <feGaussianBlur in="BackgroundImage" stdDeviation="7.424"/>
      <feComposite in2="SourceAlpha" operator="in" result="effect1_backgroundBlur"/>
      <feBlend in="SourceGraphic" in2="effect1_backgroundBlur" result="shape"/>
      <feColorMatrix in="SourceAlpha" result="hardAlpha" values="0 0 0 0 0 0 0 0 0 0 0 0 0 0 0 0 0 0 127 0"/>
      <feOffset dy=".691"/>
      <feGaussianBlur stdDeviation=".345"/>
      <feComposite in2="hardAlpha" k2="-1" k3="1" operator="arithmetic"/>
      <feColorMatrix values="0 0 0 0 1 0 0 0 0 1 0 0 0 0 1 0 0 0 0.15 0"/>
      <feBlend in2="shape" result="effect2_innerShadow"/>
      <feColorMatrix in="SourceAlpha" result="hardAlpha" values="0 0 0 0 0 0 0 0 0 0 0 0 0 0 0 0 0 0 127 0"/>
      <feOffset/>
      <feGaussianBlur stdDeviation="5.87"/>
      <feComposite in2="hardAlpha" k2="-1" k3="1" operator="arithmetic"/>
      <feColorMatrix values="0 0 0 0 0 0 0 0 0 0 0 0 0 0 0 0 0 0 0.2 0"/>
      <feBlend in2="effect2_innerShadow" result="effect3_innerShadow"/>
    </filter>
  </defs>
</svg>
