<svg xmlns="http://www.w3.org/2000/svg" width="60" height="60" fill="none" viewBox="0 0 60 60">
  <path fill="#000" d="M23.754 54.09h12.668v-9.5H23.755v9.5z" opacity=".9"/>
  <path fill="#FF6536" d="M5.563 13.128a.592.592 0 01-.4-.163.525.525 0 01-.118-.185.562.562 0 01-.045-.214.563.563 0 111.084.216.557.557 0 01-.522.346z"/>
  <path fill="#FDB62F" d="M7.813 13.128a.592.592 0 01-.4-.163.88.88 0 01-.067-.084.425.425 0 01-.051-.101.358.358 0 01-.034-.102.562.562 0 111.018.203l-.067.084a.592.592 0 01-.4.163z"/>
  <path fill="#02998A" d="M10.063 13.128a.592.592 0 01-.4-.163.57.57 0 010-.799.563.563 0 01.92.616.558.558 0 01-.52.346z"/>
  <g filter="url(#filter0_bii)">
    <path fill="#C3C5CE" d="M51 15H9a2 2 0 00-2 2v3a2 2 0 002 2h42a2 2 0 002-2v-3a2 2 0 00-2-2z"/>
  </g>
  <g filter="url(#filter1_bii)">
    <path fill="#C3C5CE" d="M20 25H9a2 2 0 00-2 2v11a2 2 0 002 2h11a2 2 0 002-2V27a2 2 0 00-2-2z"/>
  </g>
  <g filter="url(#filter2_bii)">
    <path fill="#C3C5CE" d="M51 25H26a2 2 0 00-2 2v2a2 2 0 002 2h25a2 2 0 002-2v-2a2 2 0 00-2-2z"/>
  </g>
  <g filter="url(#filter3_bii)">
    <path fill="#C3C5CE" d="M51 34H26a2 2 0 00-2 2v1a2 2 0 002 2h25a2 2 0 002-2v-1a2 2 0 00-2-2z"/>
  </g>
  <g filter="url(#filter4_bii)">
    <mask id="a" fill="#fff">
      <rect width="60" height="40" y="7" rx="2"/>
    </mask>
    <rect width="60" height="40" y="7" stroke="#C6C9D0" stroke-linecap="round" stroke-opacity=".5" stroke-width="6.341" mask="url(#a)" rx="2"/>
  </g>
  <defs>
    <filter id="filter0_bii" width="75.695" height="36.695" x="-7.847" y=".153" color-interpolation-filters="sRGB" filterUnits="userSpaceOnUse">
      <feFlood flood-opacity="0" result="BackgroundImageFix"/>
      <feGaussianBlur in="BackgroundImage" stdDeviation="7.424"/>
      <feComposite in2="SourceAlpha" operator="in" result="effect1_backgroundBlur"/>
      <feBlend in="SourceGraphic" in2="effect1_backgroundBlur" result="shape"/>
      <feColorMatrix in="SourceAlpha" result="hardAlpha" values="0 0 0 0 0 0 0 0 0 0 0 0 0 0 0 0 0 0 127 0"/>
      <feOffset dy=".691"/>
      <feGaussianBlur stdDeviation=".345"/>
      <feComposite in2="hardAlpha" k2="-1" k3="1" operator="arithmetic"/>
      <feColorMatrix values="0 0 0 0 1 0 0 0 0 1 0 0 0 0 1 0 0 0 0.15 0"/>
      <feBlend in2="shape" result="effect2_innerShadow"/>
      <feColorMatrix in="SourceAlpha" result="hardAlpha" values="0 0 0 0 0 0 0 0 0 0 0 0 0 0 0 0 0 0 127 0"/>
      <feOffset/>
      <feGaussianBlur stdDeviation="5.87"/>
      <feComposite in2="hardAlpha" k2="-1" k3="1" operator="arithmetic"/>
      <feColorMatrix values="0 0 0 0 1 0 0 0 0 1 0 0 0 0 1 0 0 0 0.05 0"/>
      <feBlend in2="effect2_innerShadow" result="effect3_innerShadow"/>
    </filter>
    <filter id="filter1_bii" width="44.695" height="44.695" x="-7.847" y="10.153" color-interpolation-filters="sRGB" filterUnits="userSpaceOnUse">
      <feFlood flood-opacity="0" result="BackgroundImageFix"/>
      <feGaussianBlur in="BackgroundImage" stdDeviation="7.424"/>
      <feComposite in2="SourceAlpha" operator="in" result="effect1_backgroundBlur"/>
      <feBlend in="SourceGraphic" in2="effect1_backgroundBlur" result="shape"/>
      <feColorMatrix in="SourceAlpha" result="hardAlpha" values="0 0 0 0 0 0 0 0 0 0 0 0 0 0 0 0 0 0 127 0"/>
      <feOffset dy=".691"/>
      <feGaussianBlur stdDeviation=".345"/>
      <feComposite in2="hardAlpha" k2="-1" k3="1" operator="arithmetic"/>
      <feColorMatrix values="0 0 0 0 1 0 0 0 0 1 0 0 0 0 1 0 0 0 0.15 0"/>
      <feBlend in2="shape" result="effect2_innerShadow"/>
      <feColorMatrix in="SourceAlpha" result="hardAlpha" values="0 0 0 0 0 0 0 0 0 0 0 0 0 0 0 0 0 0 127 0"/>
      <feOffset/>
      <feGaussianBlur stdDeviation="5.87"/>
      <feComposite in2="hardAlpha" k2="-1" k3="1" operator="arithmetic"/>
      <feColorMatrix values="0 0 0 0 1 0 0 0 0 1 0 0 0 0 1 0 0 0 0.05 0"/>
      <feBlend in2="effect2_innerShadow" result="effect3_innerShadow"/>
    </filter>
    <filter id="filter2_bii" width="58.695" height="35.695" x="9.153" y="10.153" color-interpolation-filters="sRGB" filterUnits="userSpaceOnUse">
      <feFlood flood-opacity="0" result="BackgroundImageFix"/>
      <feGaussianBlur in="BackgroundImage" stdDeviation="7.424"/>
      <feComposite in2="SourceAlpha" operator="in" result="effect1_backgroundBlur"/>
      <feBlend in="SourceGraphic" in2="effect1_backgroundBlur" result="shape"/>
      <feColorMatrix in="SourceAlpha" result="hardAlpha" values="0 0 0 0 0 0 0 0 0 0 0 0 0 0 0 0 0 0 127 0"/>
      <feOffset dy=".691"/>
      <feGaussianBlur stdDeviation=".345"/>
      <feComposite in2="hardAlpha" k2="-1" k3="1" operator="arithmetic"/>
      <feColorMatrix values="0 0 0 0 1 0 0 0 0 1 0 0 0 0 1 0 0 0 0.15 0"/>
      <feBlend in2="shape" result="effect2_innerShadow"/>
      <feColorMatrix in="SourceAlpha" result="hardAlpha" values="0 0 0 0 0 0 0 0 0 0 0 0 0 0 0 0 0 0 127 0"/>
      <feOffset/>
      <feGaussianBlur stdDeviation="5.87"/>
      <feComposite in2="hardAlpha" k2="-1" k3="1" operator="arithmetic"/>
      <feColorMatrix values="0 0 0 0 1 0 0 0 0 1 0 0 0 0 1 0 0 0 0.05 0"/>
      <feBlend in2="effect2_innerShadow" result="effect3_innerShadow"/>
    </filter>
    <filter id="filter3_bii" width="58.695" height="34.695" x="9.153" y="19.153" color-interpolation-filters="sRGB" filterUnits="userSpaceOnUse">
      <feFlood flood-opacity="0" result="BackgroundImageFix"/>
      <feGaussianBlur in="BackgroundImage" stdDeviation="7.424"/>
      <feComposite in2="SourceAlpha" operator="in" result="effect1_backgroundBlur"/>
      <feBlend in="SourceGraphic" in2="effect1_backgroundBlur" result="shape"/>
      <feColorMatrix in="SourceAlpha" result="hardAlpha" values="0 0 0 0 0 0 0 0 0 0 0 0 0 0 0 0 0 0 127 0"/>
      <feOffset dy=".691"/>
      <feGaussianBlur stdDeviation=".345"/>
      <feComposite in2="hardAlpha" k2="-1" k3="1" operator="arithmetic"/>
      <feColorMatrix values="0 0 0 0 1 0 0 0 0 1 0 0 0 0 1 0 0 0 0.15 0"/>
      <feBlend in2="shape" result="effect2_innerShadow"/>
      <feColorMatrix in="SourceAlpha" result="hardAlpha" values="0 0 0 0 0 0 0 0 0 0 0 0 0 0 0 0 0 0 127 0"/>
      <feOffset/>
      <feGaussianBlur stdDeviation="5.87"/>
      <feComposite in2="hardAlpha" k2="-1" k3="1" operator="arithmetic"/>
      <feColorMatrix values="0 0 0 0 1 0 0 0 0 1 0 0 0 0 1 0 0 0 0.05 0"/>
      <feBlend in2="effect2_innerShadow" result="effect3_innerShadow"/>
    </filter>
    <filter id="filter4_bii" width="89.695" height="69.695" x="-14.847" y="-7.847" color-interpolation-filters="sRGB" filterUnits="userSpaceOnUse">
      <feFlood flood-opacity="0" result="BackgroundImageFix"/>
      <feGaussianBlur in="BackgroundImage" stdDeviation="7.424"/>
      <feComposite in2="SourceAlpha" operator="in" result="effect1_backgroundBlur"/>
      <feBlend in="SourceGraphic" in2="effect1_backgroundBlur" result="shape"/>
      <feColorMatrix in="SourceAlpha" result="hardAlpha" values="0 0 0 0 0 0 0 0 0 0 0 0 0 0 0 0 0 0 127 0"/>
      <feOffset dy=".691"/>
      <feGaussianBlur stdDeviation=".345"/>
      <feComposite in2="hardAlpha" k2="-1" k3="1" operator="arithmetic"/>
      <feColorMatrix values="0 0 0 0 1 0 0 0 0 1 0 0 0 0 1 0 0 0 0.15 0"/>
      <feBlend in2="shape" result="effect2_innerShadow"/>
      <feColorMatrix in="SourceAlpha" result="hardAlpha" values="0 0 0 0 0 0 0 0 0 0 0 0 0 0 0 0 0 0 127 0"/>
      <feOffset/>
      <feGaussianBlur stdDeviation="5.87"/>
      <feComposite in2="hardAlpha" k2="-1" k3="1" operator="arithmetic"/>
      <feColorMatrix values="0 0 0 0 0 0 0 0 0 0 0 0 0 0 0 0 0 0 0.2 0"/>
      <feBlend in2="effect2_innerShadow" result="effect3_innerShadow"/>
    </filter>
  </defs>
</svg>
