<svg width="145" height="18" viewBox="0 0 145 18" fill="none" xmlns="http://www.w3.org/2000/svg">
<path fill-rule="evenodd" clip-rule="evenodd" d="M56.9653 0.154284H70.1423V3.35925H60.4545V7.28229H69.1784V10.4869H60.4545V14.6411H70.1423V17.8467H56.9653V0.154284ZM132.011 0.154284V17.8467H144.665V16.2215H133.921V9.68496H143.597V8.0595H133.921V1.77911H144.665V0.154284H132.011ZM114.369 1.77878H121.558C122.277 1.77878 123.051 1.90993 123.58 2.43064C124.108 2.952 124.243 3.71347 124.243 4.42125V6.72525C124.243 7.12704 124.209 7.57511 124.04 7.94539C123.848 8.36614 123.498 8.70268 123.128 8.97557L123.095 8.99968L123.059 9.02218C122.948 9.09064 122.835 9.16104 122.727 9.23561C122.612 9.31532 122.492 9.38989 122.366 9.45322C122.09 9.60332 121.787 9.68047 121.471 9.68047H114.369V1.77878ZM112.458 0.154284V17.8467H114.369V11.3056H120.228L125.225 17.8467H127.551L122.569 11.2561L125.153 9.46286C125.441 9.26293 125.857 8.92768 125.964 8.57957C126.104 8.12025 126.153 7.62975 126.153 7.15146V4.02364C126.153 2.95039 125.916 1.87329 125.1 1.13754C124.23 0.385715 123.094 0.154284 121.963 0.154284H112.458ZM97.0029 0.154284L90.649 17.8467H92.6096L93.9962 13.922H105.205L106.62 17.8467H108.559L102.23 0.154284H97.0029ZM98.2731 1.77878H100.935L104.685 12.2969H94.5589L98.2731 1.77878ZM77.1963 0.443892C76.6535 0.62807 76.1216 0.897109 75.7248 1.28732C75.3173 1.70325 75.0592 2.19728 74.9165 2.75689L74.9086 2.78775C74.6763 3.58811 74.6053 4.46014 74.6053 5.28975V12.7109C74.6053 13.5183 74.6683 14.3961 74.9052 15.173L74.9119 15.1965L74.9179 15.2206C75.0552 15.7725 75.3027 16.2691 75.7128 16.6728L75.7254 16.686L75.7381 16.6989C76.1263 17.1119 76.6303 17.3652 77.1731 17.522L77.1897 17.5265L77.2069 17.5326C77.9687 17.7821 78.8536 17.8467 79.6513 17.8467H83.3064C83.4862 17.8467 83.665 17.8383 83.8429 17.8226C84.0599 17.803 84.2762 17.7879 84.4932 17.7776C84.683 17.7689 84.8728 17.7554 85.0619 17.739C85.2942 17.7181 85.5267 17.703 85.7603 17.694C85.9614 17.6853 86.1631 17.6644 86.3622 17.6345L86.398 17.6291L86.4352 17.6259L87.3035 17.55V16.0843C86.8745 16.1045 86.4445 16.1331 86.0158 16.1659L85.9959 16.1672C84.7819 16.2344 83.5595 16.2521 82.3435 16.2521H80.0763C79.5789 16.2521 79.0308 16.2299 78.5464 16.1142C78.0736 16.0014 77.6449 15.785 77.2998 15.4446C76.9541 15.1049 76.7344 14.6829 76.6196 14.2171C76.5002 13.733 76.4796 13.1799 76.4796 12.6832V5.28975C76.4796 4.79121 76.5022 4.24832 76.6183 3.76168C76.7305 3.29272 76.9528 2.86939 77.2998 2.52771C77.6349 2.19793 78.0802 2.00443 78.5331 1.88936C79.0175 1.76722 79.5776 1.74825 80.0763 1.74825H82.3435C83.5595 1.74825 84.7812 1.76593 85.9959 1.83343L86.0151 1.83471C86.4445 1.86718 86.8745 1.89611 87.3035 1.917V0.450322L87.2232 0.442607C86.9482 0.41625 86.6728 0.384431 86.3994 0.343931L85.7199 0.29025L85.0619 0.233999C84.888 0.21857 84.7135 0.209893 84.539 0.209893C84.3067 0.209893 84.0745 0.198965 83.8429 0.178072C83.665 0.162322 83.4862 0.154284 83.3064 0.154284H79.6513C78.8437 0.154284 77.9747 0.217285 77.1963 0.443892ZM48.1594 4.87157C48.1594 4.30747 48.0466 3.91403 47.8206 3.69193C47.595 3.46982 47.1955 3.35861 46.6228 3.35861H41.0238V8.7435H46.5445C46.6839 8.7435 46.814 8.70911 46.9354 8.64096C47.0044 8.60657 47.0827 8.55932 47.1696 8.49986C47.2566 8.43975 47.3694 8.36743 47.5087 8.28161C47.7861 8.07654 47.9683 7.88014 48.0552 7.69178C48.1249 7.53846 48.1594 7.29064 48.1594 6.94832V4.87157ZM37.5346 0.154284H46.9878C48.4116 0.154284 49.5486 0.521677 50.3994 1.25711C51.2325 2.00893 51.6492 3.09407 51.6492 4.51285V7.33371C51.6492 7.8975 51.5796 8.4105 51.4409 8.87207C51.3022 9.31629 50.9458 9.73511 50.3735 10.1285L48.7852 11.231L53.785 17.8467H49.4876L44.9828 11.9491H41.0244V17.8467H37.5346V0.154284ZM29.4318 5.58964C29.4318 5.07696 29.3972 4.67518 29.3276 4.38461C29.2406 4.05997 29.1192 3.82018 28.9633 3.66653C28.8066 3.51225 28.5638 3.393 28.2343 3.30718C27.9563 3.23936 27.5568 3.20464 27.0358 3.20464H23.13C22.6092 3.20464 22.2098 3.23936 21.9318 3.30718C21.6021 3.393 21.3592 3.51225 21.2026 3.66653C21.0288 3.83786 20.916 4.07668 20.8643 4.38461C20.7946 4.67518 20.7601 5.07696 20.7601 5.58964V12.3843C20.7601 12.914 20.7946 13.3158 20.8643 13.5897C20.916 13.8973 21.0288 14.1364 21.2026 14.3074C21.3937 14.4958 21.6366 14.6237 21.9318 14.6922C22.2098 14.7603 22.6092 14.795 23.13 14.795H27.0358C27.5568 14.795 27.9563 14.7603 28.2343 14.6922C28.5293 14.6237 28.7721 14.4958 28.9633 14.3074C29.1192 14.1535 29.2406 13.9143 29.3276 13.5897C29.3972 13.3158 29.4318 12.914 29.4318 12.3843V5.58964ZM32.9206 12.3846C32.9206 13.3762 32.8164 14.2136 32.6084 14.8976C32.4 15.6327 32.0788 16.2225 31.6442 16.6667C31.1929 17.1286 30.6206 17.4616 29.9258 17.6667C29.2489 17.8888 28.3892 18 27.3477 18H22.8167C21.7917 18 20.9411 17.8888 20.2644 17.6667C19.5525 17.4616 18.9799 17.1286 18.5459 16.6667C18.0769 16.1878 17.7558 15.5986 17.5819 14.8976C17.3736 14.2136 17.2694 13.3762 17.2694 12.3846V5.58997C17.2694 4.61539 17.3736 3.76939 17.5819 3.05132C17.7558 2.36732 18.0769 1.78682 18.5459 1.30789C18.9799 0.880714 19.5525 0.54675 20.2644 0.307607C20.959 0.102536 21.8096 0 22.8167 0H27.3477C28.3547 0 29.2138 0.102536 29.9258 0.307607C30.6206 0.54675 31.1929 0.880714 31.6442 1.30789C32.0788 1.75211 32.4 2.33357 32.6084 3.05132C32.8164 3.76939 32.9206 4.61539 32.9206 5.58997V12.3846ZM3.48921 12.3846C3.48921 12.9144 3.52435 13.3161 3.59337 13.5897C3.66304 13.8806 3.79307 14.1197 3.98416 14.3077C4.17524 14.4958 4.41805 14.624 4.71331 14.6925C4.99129 14.7603 5.39071 14.795 5.91153 14.795H7.99482C9.27931 14.795 10.382 14.7696 11.3016 14.7179C11.7534 14.6841 12.1568 14.6578 12.5131 14.6411C12.8687 14.624 13.1772 14.607 13.4373 14.59V17.6406C12.8123 17.7094 12.2742 17.7609 11.8224 17.7949C11.5968 17.8296 11.3799 17.8505 11.1716 17.8589C10.9632 17.8673 10.7635 17.8804 10.5731 17.8975C10.382 17.9145 10.1949 17.9274 10.0131 17.936C9.83066 17.9444 9.64356 17.9576 9.45314 17.9746C9.26206 17.9916 9.07098 18 8.87989 18C8.68947 18 8.48051 18 8.25492 18H5.52074C4.51361 18 3.67164 17.8888 2.99424 17.6667C2.283 17.4616 1.70975 17.1286 1.27586 16.6667C0.807429 16.2055 0.485652 15.624 0.312486 14.9233C0.104151 14.2393 0 13.4016 0 12.41V5.58997C0 4.61539 0.104151 3.76939 0.312486 3.05132C0.485652 2.36732 0.807429 1.78682 1.27586 1.30789C1.70975 0.880714 2.283 0.54675 2.99424 0.307607C3.68889 0.102536 4.53086 0 5.52074 0H8.25492C8.48051 0 8.68947 0 8.87989 0C9.07098 0 9.26206 0.00835546 9.45314 0.0253912C9.64356 0.0424269 9.83066 0.051106 10.0131 0.051106C10.1949 0.051106 10.382 0.0601089 10.5731 0.0771446C10.7635 0.0941803 10.9632 0.111213 11.1716 0.127927C11.3799 0.144963 11.5968 0.162645 11.8224 0.17968C12.048 0.213752 12.2961 0.243645 12.5648 0.269038C12.8342 0.294752 13.1248 0.324642 13.4373 0.359356V3.41068C13.1772 3.393 12.8687 3.37596 12.5131 3.35893C12.1568 3.34221 11.7534 3.3165 11.3016 3.28211C10.382 3.231 9.27931 3.20496 7.99482 3.20496H5.91153C5.39071 3.20496 4.99129 3.23968 4.71331 3.3075C4.38357 3.393 4.14073 3.51257 3.98416 3.66686C3.79307 3.85489 3.66304 4.09404 3.59337 4.38461C3.52435 4.6755 3.48921 5.07729 3.48921 5.58997V12.3846Z" fill="white"/>
</svg>
